<?xml version="1.0" standalone="no"?>
<!DOCTYPE svg PUBLIC "-//W3C//DTD SVG 20010904//EN"
 "http://www.w3.org/TR/2001/REC-SVG-20010904/DTD/svg10.dtd">
<svg version="1.0" xmlns="http://www.w3.org/2000/svg"
 width="79.000000pt" height="79.000000pt" viewBox="0 0 79.000000 79.000000"
 preserveAspectRatio="xMidYMid meet">
<metadata>
Created by potrace 1.11, written by Peter Selinger 2001-2013
</metadata>
<g transform="translate(0.000000,79.000000) scale(0.100000,-0.100000)"
fill="#000000" stroke="none">
<path d="M407 713 c-8 -32 -20 -77 -27 -100 -6 -24 -14 -43 -19 -43 -4 0 -22
22 -40 50 -28 43 -35 48 -51 40 -40 -22 -41 -21 63 -163 51 -70 60 -73 72 -19
2 9 16 58 30 107 14 50 27 97 29 105 3 8 8 30 12 48 6 30 5 32 -23 32 -28 0
-31 -4 -46 -57z"/>
<path d="M466 633 c-20 -76 -43 -157 -51 -180 -8 -24 -11 -43 -8 -43 12 0 265
184 270 197 3 7 -2 22 -12 33 -17 18 -19 18 -84 -30 -36 -27 -67 -44 -69 -39
-2 5 8 49 22 98 14 49 26 92 26 95 0 3 -13 6 -28 6 -28 0 -29 -2 -66 -137z"/>
<path d="M195 606 c-17 -12 -16 -16 23 -71 23 -32 42 -61 42 -64 0 -4 -53 -6
-117 -6 -65 0 -124 -2 -130 -4 -7 -2 -13 -17 -13 -35 l0 -31 185 1 c101 0 187
2 189 5 3 3 -20 39 -50 79 -31 41 -64 90 -76 108 -22 36 -27 38 -53 18z"/>
<path d="M610 529 c-119 -83 -170 -122 -170 -128 0 -3 74 -6 164 -6 l164 0 10
32 c6 18 7 34 4 36 -4 2 -37 2 -74 2 -38 -1 -68 2 -68 7 0 4 3 8 8 8 4 0 24
15 45 33 39 32 39 33 20 54 l-18 22 -85 -60z"/>
<path d="M0 327 l0 -33 89 1 c100 1 102 -4 25 -52 -44 -28 -55 -52 -31 -71 10
-8 37 6 112 59 55 38 107 75 115 82 8 7 26 20 40 30 24 16 18 17 -163 17
l-187 0 0 -33z"/>
<path d="M366 211 c-22 -80 -42 -150 -45 -156 -3 -5 -7 -20 -9 -32 -2 -19 2
-23 27 -23 32 0 35 7 74 160 l14 54 37 -52 c21 -29 41 -52 45 -52 3 0 17 7 29
16 l22 15 -67 97 c-37 53 -72 102 -78 108 -8 8 -22 -30 -49 -135z"/>
<path d="M440 352 c0 -5 30 -51 68 -104 65 -92 68 -95 89 -81 l22 15 -34 51
c-19 29 -35 54 -35 57 0 4 43 6 95 5 53 0 100 2 105 5 4 3 12 18 15 33 l7 27
-166 0 c-91 0 -166 -4 -166 -8z"/>
<path d="M255 253 c-156 -109 -152 -105 -131 -137 14 -23 19 -24 38 -13 12 6
28 18 36 25 7 6 23 17 34 23 17 9 19 8 14 -9 -4 -11 -9 -30 -11 -42 -4 -21 -7
-33 -20 -77 -6 -21 -3 -23 33 -23 l39 0 19 68 c10 37 19 72 20 77 2 6 14 50
28 100 14 49 24 90 23 91 -1 1 -56 -36 -122 -83z"/>
</g>
</svg>
