<?xml version="1.0" encoding="UTF-8"?>
<!DOCTYPE svg PUBLIC "-//W3C//DTD SVG 1.1//EN" "http://www.w3.org/Graphics/SVG/1.1/DTD/svg11.dtd">
<!-- Creator: CorelDRAW -->
<svg xmlns="http://www.w3.org/2000/svg" xml:space="preserve" style="shape-rendering:geometricPrecision; text-rendering:geometricPrecision; image-rendering:optimizeQuality; fill-rule:evenodd; clip-rule:evenodd"
viewBox="0 0 6.82666 6.82666"
 xmlns:xlink="http://www.w3.org/1999/xlink">
 <defs>
  <style type="text/css">
   <![CDATA[
    .fil1 {fill:none}
    .fil0 {fill:#4D4D4D;fill-rule:nonzero}
   ]]>
  </style>
 </defs>
 <g id="Layer_x0020_1">
  <metadata id="CorelCorpID_0Corel-Layer"/>
  <path class="fil0" d="M5.08367 4.06752l0.725382 0c0.0452913,0 0.0863858,0.0184528 0.116106,0.0481732 0.0297205,0.0297205 0.0481732,0.0708268 0.0481732,0.116106l0 1.2736c0,0.0452913 -0.0184528,0.0863858 -0.0481732,0.116106 -0.0297205,0.0297205 -0.070815,0.0481732 -0.116106,0.0481732l-0.725382 0c-0.0452795,0 -0.0863858,-0.0184528 -0.116106,-0.0481732 -0.0297205,-0.0297205 -0.0481732,-0.070815 -0.0481732,-0.116106l0 -1.2736c0,-0.0452795 0.0184528,-0.0863858 0.0481732,-0.116106 0.0297205,-0.0297205 0.0708268,-0.0481732 0.116106,-0.0481732zm0.676323 0.213339l-0.627264 0 0 1.17548 0.627264 0 0 -1.17548z"/>
  <path class="fil0" d="M5.02606 5.2005c-0.0589094,0 -0.106669,0.0477598 -0.106669,0.106669 0,0.0589094 0.0477598,0.106669 0.106669,0.106669l0.840602 0c0.0589094,0 0.106669,-0.0477598 0.106669,-0.106669 0,-0.0589094 -0.0477598,-0.106669 -0.106669,-0.106669l-0.840602 0z"/>
  <path class="fil0" d="M4.96366 5.12963c0.0589094,0 0.106669,-0.0477598 0.106669,-0.106669 0,-0.0589094 -0.0477598,-0.106669 -0.106669,-0.106669l-1.79324 0 0 -1.29384 1.92588 0 0 0.551732c0,0.0589094 0.0477598,0.106669 0.106669,0.106669 0.0589094,0 0.106669,-0.0477598 0.106669,-0.106669l0 -0.658402c0,-0.0589094 -0.0477598,-0.106669 -0.106669,-0.106669l-2.13922 0c-0.0589094,0 -0.106669,0.0477598 -0.106669,0.106669l0 1.50718c0,0.0589094 0.0477598,0.106669 0.106669,0.106669l1.89991 0z"/>
  <path class="fil0" d="M2.91789 5.17987c-0.0589094,0 -0.106669,0.0477598 -0.106669,0.106669 0,0.0589094 0.0477598,0.106669 0.106669,0.106669l2.04577 0c0.0589094,0 0.106669,-0.0477598 0.106669,-0.106669 0,-0.0589094 -0.0477598,-0.106669 -0.106669,-0.106669l-2.04577 0z"/>
  <path class="fil0" d="M3.06591 4.58241c0.0589094,0 0.106669,-0.0477598 0.106669,-0.106669 0,-0.0589094 -0.0477598,-0.106669 -0.106669,-0.106669l-1.99924 0 0 -1.3732 2.46069 0 0 0.506165c0,0.0589094 0.0477598,0.106669 0.106669,0.106669 0.0589094,0 0.106669,-0.0477598 0.106669,-0.106669l0 -0.612835c0,-0.0589094 -0.0477598,-0.106669 -0.106669,-0.106669l-2.67403 0c-0.0589094,0 -0.106669,0.0477598 -0.106669,0.106669l0 1.58654c0,0.0589094 0.0477598,0.106669 0.106669,0.106669l2.10591 0z"/>
  <path class="fil0" d="M2.40368 4.47574c0,-0.0589094 -0.0477598,-0.106669 -0.106669,-0.106669 -0.0589094,0 -0.106669,0.0477598 -0.106669,0.106669l0 0.561843c0,0.0589094 0.0477598,0.106669 0.106669,0.106669 0.0589094,0 0.106669,-0.0477598 0.106669,-0.106669l0 -0.561843z"/>
  <path class="fil0" d="M2.01609 4.93091c-0.0589094,0 -0.106669,0.0477598 -0.106669,0.106669 0,0.0589094 0.0477598,0.106669 0.106669,0.106669l0.561843 0c0.0589094,0 0.106669,-0.0477598 0.106669,-0.106669 0,-0.0589094 -0.0477598,-0.106669 -0.106669,-0.106669l-0.561843 0z"/>
  <path class="fil0" d="M3.11057 1.21032l0.368268 0c0.0294528,0 0.0533346,0.0238819 0.0533346,0.0533346l0 0.320531c0,0.0294528 -0.0238819,0.0533346 -0.0533346,0.0533346l-0.368268 0c-0.0294528,0 -0.0533346,-0.0238819 -0.0533346,-0.0533346l0 -0.320531c0,-0.0294528 0.0238819,-0.0533346 0.0533346,-0.0533346zm0.314933 0.106669l-0.261598 0 0 0.213862 0.261598 0 0 -0.213862z"/>
  <path class="fil0" d="M3.34804 1.58107c0,-0.0294528 -0.0238819,-0.0533346 -0.0533346,-0.0533346 -0.0294528,0 -0.0533346,0.0238819 -0.0533346,0.0533346l0 0.49087c0,0.0294528 0.0238819,0.0533346 0.0533346,0.0533346 0.0294528,0 0.0533346,-0.0238819 0.0533346,-0.0533346l0 -0.49087z"/>
  <path class="fil0" d="M2.21478 2.01859c-0.0294528,0 -0.0533346,0.0238819 -0.0533346,0.0533346 0,0.0294528 0.0238819,0.0533346 0.0533346,0.0533346l3.23158 0c0.0294528,0 0.0533346,-0.0238819 0.0533346,-0.0533346 0,-0.0294528 -0.0238819,-0.0533346 -0.0533346,-0.0533346l-3.23158 0z"/>
  <path class="fil0" d="M4.1867 2.07193c0,-0.0294528 -0.0238819,-0.0533346 -0.0533346,-0.0533346 -0.0294528,0 -0.0533346,0.0238819 -0.0533346,0.0533346l0 1.23018c0,0.0294528 0.0238819,0.0533346 0.0533346,0.0533346 0.0294528,0 0.0533346,-0.0238819 0.0533346,-0.0533346l0 -1.23018z"/>
  <path class="fil0" d="M2.26813 2.07193c0,-0.0294528 -0.0238819,-0.0533346 -0.0533346,-0.0533346 -0.0294528,0 -0.0533346,0.0238819 -0.0533346,0.0533346l0 0.547563c0,0.0294528 0.0238819,0.0533346 0.0533346,0.0533346 0.0294528,0 0.0533346,-0.0238819 0.0533346,-0.0533346l0 -0.547563z"/>
  <path class="fil0" d="M5.49969 2.07193c0,-0.0294528 -0.0238819,-0.0533346 -0.0533346,-0.0533346 -0.0294528,0 -0.0533346,0.0238819 -0.0533346,0.0533346l0 1.86532c0,0.0294528 0.0238819,0.0533346 0.0533346,0.0533346 0.0294528,0 0.0533346,-0.0238819 0.0533346,-0.0533346l0 -1.86532z"/>
 </g>
</svg>
