<svg xmlns:sketch="http://www.bohemiancoding.com/sketch/ns" xmlns="http://www.w3.org/2000/svg" xmlns:xlink="http://www.w3.org/1999/xlink" version="1.1" id="Layer_1" x="0px" y="0px" viewBox="-979 991 24 21" style="enable-background:new -979 991 24 21;" xml:space="preserve" class="svg replaced-svg">
<title></title>
<desc></desc>
<g id="Page-1">
	<g id="icon-138-certificate">
		<path id="certificate" class="st0" d="M-970,1004.9v2.1h13c0.6,0,1-0.4,1-1v-13c0-0.6-0.4-1-1-1h-20c-0.6,0-1,0.4-1,1v13    c0,0.6,0.4,1,1,1h2v-2.1c-0.6-0.6-1-1.5-1-2.4c0-1.9,1.6-3.5,3.5-3.5s3.5,1.6,3.5,3.5C-969,1003.5-969.4,1004.3-970,1004.9    L-970,1004.9L-970,1004.9z M-974,1005.7v3.9l1.5-1.5l1.5,1.5v-3.9c-0.5,0.2-1,0.3-1.5,0.3S-973.5,1005.9-974,1005.7L-974,1005.7    L-974,1005.7z M-975,1008h-2c-1.1,0-2-0.9-2-2v-13c0-1.1,0.9-2,2-2h20c1.1,0,2,0.9,2,2v13c0,1.1-0.9,2-2,2h-13v4l-2.5-2.5    l-2.5,2.5V1008L-975,1008z M-976,996v1h18v-1H-976L-976,996z M-967,999v1h9v-1H-967L-967,999z M-964,1002v1h6v-1H-964L-964,1002z     M-972.5,1005c1.4,0,2.5-1.1,2.5-2.5s-1.1-2.5-2.5-2.5s-2.5,1.1-2.5,2.5S-973.9,1005-972.5,1005L-972.5,1005z"></path>
	</g>
</g>
</svg>