<?xml version="1.0" ?><!DOCTYPE svg  PUBLIC '-//W3C//DTD SVG 1.1//EN'  'http://www.w3.org/Graphics/SVG/1.1/DTD/svg11.dtd'><svg enable-background="new 0 0 64 64" height="64px" id="Layer_1" version="1.1" viewBox="0 0 64 64" width="64px" xml:space="preserve" xmlns="http://www.w3.org/2000/svg" xmlns:xlink="http://www.w3.org/1999/xlink"><g><path d="   M56,48c0,1-0.9,1.9-2,1.9H10c-1.1,0-2-0.8-2-1.9V31.8c0-1,0.9-1.9,2-1.9H54c1.1,0,2,0.8,2,1.9V48z" fill="none" stroke="#4D4D4D" stroke-linecap="round" stroke-linejoin="round" stroke-miterlimit="10" stroke-width="2"/><path d="   M15,49.9v4.7c0,1.1,0.9,1.9,2,1.9h30c1.1,0,2-0.9,2-1.9v-4.7H15z" fill="none" stroke="#4D4D4D" stroke-linecap="round" stroke-linejoin="round" stroke-miterlimit="10" stroke-width="2"/><path d="   M40.6,11.9c0,1.1,0.9,2,1.9,2h4.1l-6.1-6.5V11.9z" fill="none" stroke="#4D4D4D" stroke-linecap="round" stroke-linejoin="round" stroke-miterlimit="10" stroke-width="2"/><path d="   M40.6,7.5h-22c-1.1,0-1.9,0.9-1.9,2v20.4h30V14L40.6,7.5z" fill="none" stroke="#4D4D4D" stroke-linecap="round" stroke-linejoin="round" stroke-miterlimit="10" stroke-width="2"/><line fill="none" stroke="#4D4D4D" stroke-linecap="round" stroke-linejoin="round" stroke-miterlimit="10" x1="23.7" x2="40.6" y1="15.7" y2="15.7"/><line fill="none" stroke="#4D4D4D" stroke-linecap="round" stroke-linejoin="round" stroke-miterlimit="10" x1="23.7" x2="40.6" y1="20.7" y2="20.7"/><line fill="none" stroke="#4D4D4D" stroke-linecap="round" stroke-linejoin="round" stroke-miterlimit="10" x1="23.7" x2="40.6" y1="25.7" y2="25.7"/><circle cx="50.6" cy="34.2" fill="none" r="1.6" stroke="#4D4D4D" stroke-linecap="round" stroke-linejoin="round" stroke-miterlimit="10"/><line fill="none" stroke="#4D4D4D" stroke-linecap="round" stroke-linejoin="round" stroke-miterlimit="10" x1="8" x2="56" y1="45.5" y2="45.5"/></g></svg>