<?xml version="1.0" encoding="UTF-8"?>
<!DOCTYPE svg PUBLIC "-//W3C//DTD SVG 1.1//EN" "http://www.w3.org/Graphics/SVG/1.1/DTD/svg11.dtd">
<!-- Creator: CorelDRAW -->
<svg xmlns="http://www.w3.org/2000/svg" xml:space="preserve" width="2048px" height="2048px" style="shape-rendering:geometricPrecision; text-rendering:geometricPrecision; image-rendering:optimizeQuality; fill-rule:evenodd; clip-rule:evenodd"
viewBox="0 0 2048 2048"
 xmlns:xlink="http://www.w3.org/1999/xlink">
 <defs>
  <style type="text/css">
   <![CDATA[
    .fil1 {fill:none}
    .fil0 {fill:none;fill-rule:nonzero}
   ]]>
  </style>
 </defs>
 <g id="Layer_x0020_1">
  <metadata id="CorelCorpID_0Corel-Layer"/>
  <g id="_409284088">
   <polygon id="_409285408" class="fil0" points="1354.48,395.202 1536,395.202 1560,395.202 1560,419.202 1560,1685.73 1560,1709.73 1536,1709.73 512,1709.73 488,1709.73 488,1685.73 488,419.202 488,395.202 512,395.202 695.499,395.202 695.499,443.202 536,443.202 536,1661.73 1512,1661.73 1512,443.202 1354.48,443.202 "/>
   <path id="_409285072" class="fil0" d="M720.001 310.401l0 76.0111c0,4.91457 2.03622,9.40867 5.3126,12.685 3.27756,3.27756 7.77166,5.31378 12.6862,5.31378l572.001 0c4.91575,0 9.41103,-2.03504 12.6874,-5.31142 3.2752,-3.27638 5.31142,-7.77048 5.31142,-12.6874l0 -76.0111 -607.999 0zm-64.0016 76.0111l0 -108.012c0,-17.6728 14.328,-32.0008 32.0008,-32.0008l672.001 0c17.6728,0 32.0008,14.328 32.0008,32.0008l0 108.012c0,22.5827 -9.21733,43.0902 -24.0626,57.9378 -14.8465,14.8465 -35.3563,24.0626 -57.9378,24.0626l-572.001 0c-22.5803,0 -43.089,-9.21733 -57.9367,-24.065 -14.8465,-14.8465 -24.0638,-35.3551 -24.0638,-57.9355z"/>
   <g>
    <path id="_409285648" class="fil0" d="M1165.01 664.49c13.2543,0 24,-10.7457 24,-24 0,-13.2543 -10.7457,-24 -24,-24l-307.478 0c-13.2543,0 -24,10.7457 -24,24 0,13.2543 10.7457,24 24,24l307.478 0z"/>
    <path id="_409285336" class="fil0" d="M1283.27 760.485c13.2543,0 24,-10.7457 24,-24 0,-13.2543 -10.7457,-24 -24,-24l-425.739 0c-13.2543,0 -24,10.7457 -24,24 0,13.2543 10.7457,24 24,24l425.739 0z"/>
    <path id="_409284736" class="fil0" d="M1401.53 920.493c13.2543,0 24,-10.7457 24,-24 0,-13.2543 -10.7457,-24 -24,-24l-544.001 0c-13.2543,0 -24,10.7457 -24,24 0,13.2543 10.7457,24 24,24l544.001 0z"/>
    <path id="_409284856" class="fil0" d="M1401.53 1016.49c13.2543,0 24,-10.7457 24,-24 0,-13.2543 -10.7457,-24 -24,-24l-544.001 0c-13.2543,0 -24,10.7457 -24,24 0,13.2543 10.7457,24 24,24l544.001 0z"/>
    <path id="_409284424" class="fil0" d="M1401.53 1176.49c13.2543,0 24,-10.7457 24,-24 0,-13.2543 -10.7457,-24 -24,-24l-544.001 0c-13.2543,0 -24,10.7457 -24,24 0,13.2543 10.7457,24 24,24l544.001 0z"/>
    <path id="_409284328" class="fil0" d="M1401.53 1272.49c13.2543,0 24,-10.7457 24,-24 0,-13.2543 -10.7457,-24 -24,-24l-544.001 0c-13.2543,0 -24,10.7457 -24,24 0,13.2543 10.7457,24 24,24l544.001 0z"/>
    <path id="_409284544" class="fil0" d="M1401.53 1432.5c13.2543,0 24,-10.7457 24,-24 0,-13.2543 -10.7457,-24 -24,-24l-544.001 0c-13.2543,0 -24,10.7457 -24,24 0,13.2543 10.7457,24 24,24l544.001 0z"/>
    <path id="_409284592" class="fil0" d="M1401.53 1528.49c13.2543,0 24,-10.7457 24,-24 0,-13.2543 -10.7457,-24 -24,-24l-544.001 0c-13.2543,0 -24,10.7457 -24,24 0,13.2543 10.7457,24 24,24l544.001 0z"/>
    <path id="_409284904" class="fil0" d="M718.466 664.488l-48 0 0 48 48 0 0 -48zm-72.0001 -48l96.0001 0c13.2543,0 24,10.7457 24,24l0 96.0001c0,13.2543 -10.7457,24 -24,24l-96.0001 0c-13.2543,0 -24,-10.7457 -24,-24l0 -96.0001c0,-13.2543 10.7457,-24 24,-24z"/>
    <path id="_409284232" class="fil0" d="M718.466 920.49l-48 0 0 48 48 0 0 -48zm-72.0001 -48l96.0001 0c13.2543,0 24,10.7457 24,24l0 96.0001c0,13.2543 -10.7457,24 -24,24l-96.0001 0c-13.2543,0 -24,-10.7457 -24,-24l0 -96.0001c0,-13.2543 10.7457,-24 24,-24z"/>
    <path id="_409284928" class="fil0" d="M718.466 1176.49l-48 0 0 48 48 0 0 -48zm-72.0001 -48l96.0001 0c13.2543,0 24,10.7457 24,24l0 96.0001c0,13.2543 -10.7457,24 -24,24l-96.0001 0c-13.2543,0 -24,-10.7457 -24,-24l0 -96.0001c0,-13.2543 10.7457,-24 24,-24z"/>
    <path id="_409284520" class="fil0" d="M718.466 1432.49l-48 0 0 48 48 0 0 -48zm-72.0001 -48l96.0001 0c13.2543,0 24,10.7457 24,24l0 96.0001c0,13.2543 -10.7457,24 -24,24l-96.0001 0c-13.2543,0 -24,-10.7457 -24,-24l0 -96.0001c0,-13.2543 10.7457,-24 24,-24z"/>
   </g>
   <path id="_409284160" class="fil0" d="M1600 355.204l-207.997 0 0 31.2083c0,22.5827 -9.21733,43.0902 -24.0626,57.9378 -14.8465,14.8465 -35.3563,24.0626 -57.9378,24.0626l-572.001 0c-22.5803,0 -43.089,-9.21733 -57.9367,-24.065 -14.8465,-14.8465 -24.0638,-35.3551 -24.0638,-57.9355l0 -31.2083 -207.997 0 0 1382.4 1152 0 0 -1382.4zm-239.998 -64.0016l271.999 0 32.0008 0 0 32.0008 0 1446.4 0 32.0008 -32.0008 0 -1216 0 -32.0008 0 0 -32.0008 0 -1446.4 0 -32.0008 32.0008 0 271.999 0 32.0008 0 0 32.0008 0 63.2091c0,4.91457 2.03622,9.40867 5.3126,12.685 3.27756,3.27756 7.77166,5.31378 12.6862,5.31378l572.001 0c4.91575,0 9.41103,-2.03504 12.6874,-5.31142 3.2752,-3.27638 5.31142,-7.77048 5.31142,-12.6874l0 -63.2091 0 -32.0008 32.0008 0z"/>
  </g>
 </g>
</svg>
