<?xml version="1.0" encoding="UTF-8"?>
<!DOCTYPE svg PUBLIC "-//W3C//DTD SVG 1.1//EN" "http://www.w3.org/Graphics/SVG/1.1/DTD/svg11.dtd">
<!-- Creator: CorelDRAW -->
<svg xmlns="http://www.w3.org/2000/svg" xml:space="preserve" width="2048px" height="2048px" style="shape-rendering:geometricPrecision; text-rendering:geometricPrecision; image-rendering:optimizeQuality; fill-rule:evenodd; clip-rule:evenodd"
viewBox="0 0 2048 2048"
 xmlns:xlink="http://www.w3.org/1999/xlink">
 <defs>
  <style type="text/css">
   <![CDATA[
    .fil2 {fill:none}
    .fil1 {fill:#212121}
    .fil0 {fill:#212121;fill-rule:nonzero}
   ]]>
  </style>
 </defs>
 <g id="Layer_x0020_1">
  <metadata id="CorelCorpID_0Corel-Layer"/>
  <g id="_408003104">
   <path id="_408003728" class="fil0" d="M737.697 787.909c45.0201,0 85.78,18.2492 115.286,47.7555 29.504,29.504 47.7555,70.2662 47.7555,115.286 0,45.0201 -18.2504,85.7812 -47.7555,115.285 -29.504,29.5051 -70.2662,47.7555 -115.286,47.7555 -45.0201,0 -85.7823,-18.2504 -115.286,-47.7555 -29.5051,-29.504 -47.7555,-70.265 -47.7555,-115.285 0,-45.0201 18.2504,-85.7823 47.7555,-115.286 29.504,-29.5051 70.2662,-47.7555 115.286,-47.7555zm81.3485 81.6934c-20.8169,-20.8169 -49.5792,-33.6933 -81.3485,-33.6933 -31.7693,0 -60.5327,12.8764 -81.3485,33.6933 -20.8169,20.8158 -33.6933,49.5792 -33.6933,81.3485 0,31.7693 12.8764,60.5315 33.6933,81.3473 20.8158,20.8169 49.5792,33.6933 81.3485,33.6933 31.7693,0 60.5327,-12.8764 81.3485,-33.6933 20.8169,-20.8158 33.6933,-49.578 33.6933,-81.3473 0,-31.7693 -12.8776,-60.5327 -33.6933,-81.3485z"/>
   <path id="_408003632" class="fil0" d="M900.785 787.862c-21.3945,-21.3945 -46.7587,-38.5536 -74.7721,-50.1556 -27.0508,-11.2028 -56.8725,-17.387 -88.3158,-17.387 -31.4433,0 -61.265,6.18426 -88.3158,17.387 -28.0122,11.6008 -53.3776,28.761 -74.7721,50.1556 -21.3945,21.3945 -38.5536,46.7599 -50.1556,74.7733 -11.2039,27.0508 -17.3882,56.8725 -17.3882,88.3158 0,31.4433 6.18426,61.265 17.387,88.3146 11.6032,28.0122 28.7622,53.3788 50.1567,74.7733 21.3945,21.3945 46.7599,38.5536 74.7733,50.1556 27.0496,11.2039 56.8713,17.3882 88.3146,17.3882 31.4433,0 61.265,-6.18426 88.3146,-17.387 28.0122,-11.6032 53.3788,-28.7622 74.7733,-50.1567 41.7296,-41.7296 67.5438,-99.3922 67.5438,-163.088 0,-31.4433 -6.18426,-61.265 -17.3882,-88.3158 -11.602,-28.0134 -28.761,-53.3788 -50.1556,-74.7733zm-50.5217 -109.156c36.2622,15.0189 68.7438,36.8776 95.7721,63.906 27.0284,27.0284 48.887,59.5111 63.906,95.7733 14.4272,34.8307 22.389,72.8587 22.389,112.566 0,37.5473 -7.02875,73.4516 -19.8331,106.475 -11.1154,11.2146 -22.3347,22.2969 -33.6118,33.2551 -50.5276,49.1032 -102.895,96.104 -155.998,142.303 -27.0508,8.19331 -55.6559,12.6 -85.1906,12.6 -39.7075,0 -77.7355,-7.96182 -112.565,-22.389 -36.2622,-15.0189 -68.7449,-36.8776 -95.7733,-63.906 -27.0284,-27.0284 -48.887,-59.5099 -63.9071,-95.7733 -14.4248,-34.8284 -22.3878,-72.8575 -22.3878,-112.565 0,-39.7075 7.96182,-77.7355 22.389,-112.566 15.0189,-36.2622 36.8776,-68.7449 63.906,-95.7733 27.0284,-27.0284 59.5087,-48.887 95.7721,-63.906 34.8307,-14.426 72.8599,-22.3878 112.566,-22.3878 39.7063,0 77.7355,7.96182 112.566,22.3878z"/>
   <path id="_408003704" class="fil0" d="M642.39 1436.41c0.998032,6.44882 3.86457,12.1429 7.963,16.6217 2.2441,-39.2303 17.1839,-76.4764 42.6662,-106.3l-3.50788 -22.6689 0.124016 -0.0188977c-2.21693,-14.328 -13.6217,-24.952 -27.2894,-26.8158 -20.7673,-4.49528 -40.9441,-10.8626 -60.3461,-18.9142 -20.2902,-8.42127 -39.6969,-18.7288 -58.0052,-30.7099l0.0188977 -0.0283465c-12.1299,-7.9382 -27.6532,-6.5752 -38.1839,2.33268l-57.5918 42.1536 -0.258662 -0.303544c-3.51969,-4.11614 -7.0819,-8.11064 -10.676,-11.9799 -4.513,-4.86024 -8.34686,-8.86536 -11.5158,-12.0343 -3.60473,-3.60473 -7.96064,-7.75631 -13.0618,-12.4465 -3.44764,-3.17008 -7.94056,-7.08898 -13.4728,-11.7496 -0.95315,-0.80315 -1.88622,-1.58504 -2.79921,-2.34449l43.4103 -61.2745 0.133465 0.0944883c8.32796,-11.7543 7.60276,-27.1984 -0.760631,-38.0398 -11.2677,-17.5677 -21.0142,-36.1524 -29.0481,-55.5626 -8.2252,-19.8732 -14.7012,-40.7008 -19.2284,-62.2843l-31.2496 6.49961 31.3181 -6.57048c-3.02126,-14.4024 -15.2906,-24.4925 -29.2984,-25.3713l-69.4595 -10.7504 0.0437008 -0.558662c0.31063,-4.00158 0.589371,-9.31536 0.832678,-15.9307 0.26811,-7.30158 0.402756,-12.8421 0.402756,-16.6406 0,-4.47048 -0.158268,-10.4658 -0.472441,-17.9764 -0.305906,-7.32166 -0.654331,-13.2532 -1.04173,-17.7815 -0.0956694,-1.11732 -0.210236,-2.33504 -0.34252,-3.65433l73.3666 -12.5197 -5.3752 -31.5 5.38347 31.5437c14.1319,-2.41181 24.5079,-13.7492 26.3339,-27.2433 4.51418,-20.8843 10.8532,-41.054 18.8374,-60.3272 8.3882,-20.2488 18.6473,-39.6083 30.5634,-57.8634l0.0862205 0.056693c7.92284,-12.1311 6.55158,-27.6437 -2.35276,-38.165l-41.9504 -57.3119 0.303544 -0.258662c4.1126,-3.51851 8.10709,-7.07835 11.974,-10.6701 4.86142,-4.51654 8.87835,-8.35985 12.0402,-11.5217 3.60591,-3.60591 7.75985,-7.96536 12.4476,-13.0642 3.16418,-3.44173 7.08898,-7.94292 11.7484,-13.4717 0.80315,-0.95315 1.58504,-1.88622 2.34449,-2.79921l60.8457 43.1079 -0.0933072 0.132284c11.4921,8.14253 26.511,7.62993 37.3075,-0.211417 17.8937,-11.5807 36.8327,-21.5729 56.6174,-29.778 20.0351,-8.30788 40.9004,-14.8169 62.3894,-19.324l-6.49961 -31.2496 6.5693 31.3181c14.4,-3.02008 24.4902,-15.2858 25.3713,-29.2902l10.7516 -69.4666 0.558662 0.0437008c4.00512,0.31063 9.32127,0.589371 15.9425,0.832678 7.29567,0.266929 12.8575,0.402756 16.6288,0.402756 4.46693,0 10.4587,-0.158268 17.9669,-0.472441 7.33701,-0.307087 13.2591,-0.655512 17.791,-1.04173 1.1185,-0.0956694 2.33622,-0.211417 3.65433,-0.343701l12.5197 73.3678 -0.0437008 0.00708662c2.41063,14.1295 13.7445,24.5032 27.2351,26.3327 20.85,4.50473 40.9855,10.8307 60.2233,18.7937 20.2288,8.37402 39.5622,18.6071 57.789,30.4902l-0.056693 0.0862205c12.2941,8.01733 28.0524,6.49725 38.5725,-2.72835l57.8859 -41.0091c0.759449,0.912993 1.54134,1.84606 2.34449,2.79921 4.65709,5.52756 8.57363,10.0193 11.7425,13.4658 4.69134,5.10237 8.84764,9.46418 12.4536,13.0701 3.16181,3.16181 7.17756,7.00512 12.0378,11.5193 3.86693,3.59292 7.86142,7.15276 11.9752,10.6724l0.303544 0.258662 -42.9544 58.6843 25.7504 18.8752 -25.8225 -18.9012c-8.42245,11.5063 -8.02914,26.7626 -0.0744095,37.7103 11.6516,17.9575 21.6957,36.9626 29.9303,56.8063 8.34804,20.1106 14.8831,41.0587 19.402,62.6351l31.2496 -6.49961 -31.3205 6.56103c2.90315,13.865 14.3788,23.7355 27.7264,25.2425l31.154 5.31615c13.9169,-18.6366 27.3272,-38.1118 39.3272,-58.1233l-40.7221 -6.94843c-4.80355,-18.1205 -10.7705,-35.7107 -17.8158,-52.6843 -7.1315,-17.1827 -15.3484,-33.7536 -24.5622,-49.6205l47.0599 -64.2922c0.470079,-0.559843 0.925985,-1.13858 1.36299,-1.73858 10.4102,-14.2807 7.27205,-34.2992 -7.00867,-44.7095l-18.8504 25.8591 18.75 -25.7504c-2.06339,-1.50473 -5.38111,-4.08189 -9.95316,-7.73386 -3.92363,-3.13465 -7.73977,-6.28819 -11.4331,-9.44765 -3.12874,-2.67638 -6.45709,-5.65512 -9.97442,-8.92205 -2.51221,-2.33386 -5.94567,-5.67756 -10.2874,-10.0193 -4.34764,-4.34764 -7.91694,-8.03859 -10.7032,-11.0693 -4.31693,-4.69607 -7.65237,-8.43898 -9.99213,-11.2169 -2.81103,-3.3378 -6.01182,-7.32402 -9.59883,-11.961 -2.42481,-3.13347 -4.99961,-6.61418 -7.71851,-10.4303 -0.336614,-0.540945 -0.689764,-1.07599 -1.06299,-1.60276 -10.2154,-14.4201 -30.1902,-17.8288 -44.6103,-7.61339l0.0944883 0.132284 -68.3658 48.4347c-15.9284,-9.23859 -32.55,-17.4685 -49.7741,-24.5977 -16.8945,-6.99331 -34.3276,-12.9106 -52.2107,-17.6634l-13.865 -81.2505c-0.0673229,-0.570473 -0.148819,-1.14213 -0.248032,-1.71496 -3.00236,-17.4154 -19.5567,-29.0988 -36.9721,-26.0965l0.00708662 0.0437008c-5.96811,1.02874 -10.8402,1.78347 -14.6114,2.26417 -3.33189,0.425197 -8.3941,0.929528 -15.1902,1.50945 -6.29056,0.536221 -11.3197,0.887009 -15.039,1.04173 -3.52796,0.147638 -8.68701,0.222047 -15.4677,0.222047 -6.83741,0 -11.6173,-0.0519685 -14.3776,-0.152362 -3.45709,-0.126378 -7.94056,-0.405118 -13.4433,-0.832678 -5.63741,-0.43937 -10.5756,-0.896457 -14.7969,-1.36772 -4.0004,-0.446457 -7.30394,-0.851575 -9.89528,-1.20945 -0.831497,-0.197244 -1.67717,-0.36378 -2.53583,-0.497244 -17.465,-2.70236 -33.8162,9.26457 -36.5185,26.7295l0.124016 0.0188977 -12.5953 81.3839c-17.9398,4.77284 -35.3599,10.689 -52.1741,17.661 -17.2441,7.1504 -33.8764,15.398 -49.8083,24.652l-65.915 -46.6996c-0.820867,-0.715749 -1.68662,-1.39606 -2.59606,-2.03858 -14.4354,-10.1953 -34.4044,-6.75709 -44.5996,7.67835l26.139 18.4606 -26.1248 -18.3756c-3.10866,4.40197 -6.0378,8.37993 -8.77442,11.9162 -3.58229,4.63111 -6.78426,8.62205 -9.59292,11.9551 -2.34095,2.77795 -5.67048,6.51615 -9.99804,11.2228 -2.78386,3.02717 -6.35079,6.71693 -10.6973,11.0634 -4.34292,4.34292 -7.77638,7.68662 -10.2898,10.0217 -3.51496,3.26575 -6.84213,6.24095 -9.97324,8.91969 -3.24449,2.77559 -6.58229,5.54528 -10.0039,8.30079 -0.518504,0.366142 -1.0311,0.748819 -1.53307,1.15039l0.0992127 0.125197c-2.57835,2.05984 -5.12481,4.02756 -7.63583,5.90079 -0.836221,0.501969 -1.65827,1.0441 -2.46142,1.63228 -14.2606,10.4374 -17.3599,30.4618 -6.92245,44.7225l25.8225 -18.9 -25.7504 18.8752 48.678 66.5056c-9.17363,15.8351 -17.3504,32.3587 -24.4441,49.48 -7.01339,16.9288 -12.9437,34.3985 -17.7083,52.3229l-81.2268 13.8614c-0.575197,0.0673229 -1.15276,0.15 -1.73032,0.249213 -17.4165,2.99764 -29.1047,19.5496 -26.1071,36.9662l0.0448819 -0.00826772c1.02874,5.98465 1.78583,10.8614 2.26536,14.6244 0.422835,3.32481 0.927166,8.38111 1.50827,15.1866 0.537402,6.28819 0.885827,11.3008 1.04173,15.0295 0.147638,3.53032 0.222047,8.69292 0.222047,15.4772 0,6.82087 -0.0507874,11.628 -0.152362,14.3894 -0.126378,3.45355 -0.405118,7.93229 -0.832678,13.4315 -0.438189,5.63622 -0.895276,10.5673 -1.36536,14.7851 -0.447638,4.00985 -0.853938,7.31457 -1.21181,9.90709 -0.197244,0.831497 -0.36378,1.67717 -0.497244,2.53583 -2.70236,17.465 9.26457,33.8162 26.7295,36.5185l0.0188977 -0.124016 81.3957 12.5976c4.73386,17.7449 10.6146,35.0457 17.5547,51.8162 7.11024,17.178 15.3165,33.7607 24.5268,49.6559l-47.0587 66.4229c-0.715749,0.820867 -1.39606,1.68662 -2.03858,2.59606 -10.1953,14.4354 -6.75709,34.4044 7.67835,44.5996l18.4606 -26.139 -18.3756 26.1248c4.40197,3.10866 8.37993,6.0378 11.9162,8.77442 4.63111,3.58229 8.62205,6.78426 11.9551,9.59292 2.77914,2.34095 6.52441,5.67874 11.224,9.99922 3.02481,2.7815 6.71693,6.35197 11.061,10.6961 4.33347,4.33347 7.6819,7.77048 10.0158,10.2839 3.26811,3.51733 6.24686,6.84686 8.9256,9.97914 2.77677,3.24685 5.5441,6.57993 8.30079,10.0028 0.367323,0.519685 0.750001,1.03228 1.15276,1.53662l0.125197 -0.0992127c2.06221,2.57953 4.03111,5.12717 5.90315,7.63819 0.500788,0.83504 1.04291,1.65591 1.62874,2.45669 10.4374,14.2606 30.4618,17.3599 44.7225,6.92245l-18.9 -25.8225 18.8752 25.7504 66.7052 -48.8244c15.8351,9.18662 32.367,17.3823 49.5071,24.4961 16.8496,6.99331 34.3087,12.9248 52.2945,17.7106l12.5965 81.3851z"/>
   <path id="_408003248" class="fil0" d="M728.762 1355.96c10.3843,-8.90788 21.3815,-18.2953 32.8796,-28.1091 154.206,-131.617 400.42,-341.769 476.317,-514.509l29.25 12.75 -29.2973 -12.8717c0.198425,-0.452363 0.407481,-0.897638 0.624804,-1.33583 13.5307,-31.4882 15.2374,-60.8634 16.911,-89.7142 3.42638,-59.0445 6.75237,-116.31 81.6131,-191.171 49.6335,-49.6323 147.147,-56.7166 214.336,-61.5981 6.46418,-0.470079 12.4996,-0.908268 21.7701,-1.68662l-0.0011811 -0.0165354c17.6102,-1.47992 33.0886,11.5961 34.5685,29.2063 0.891733,10.6181 -3.50788,20.4591 -11.0032,26.9256l-148.956 149.335 21.2091 149.443 149.445 21.2114 151.043 -150.665 -0.0649607 -0.0649607c12.5114,-12.4807 32.7744,-12.4547 45.2552,0.056693 7.1563,7.17402 10.1988,16.898 9.13465,26.2406 -0.95315,11.5937 -1.41732,21.6945 -1.90748,32.4059 -2.9752,64.8934 -6.79843,148.243 -61.2969,202.739 -71.7001,71.7001 -131.81,76.2331 -190.94,80.6883 -33.0579,2.49095 -65.7449,4.95473 -98.1072,23.4921 -106.563,61.03 -198.695,134.042 -284.711,218.152 -86.7863,84.867 -167.552,181.125 -250.606,287.784l0.0933072 0.0732284c-1.0252,1.31575 -2.13189,2.52992 -3.30945,3.64134 -28.6217,28.2544 -66.1241,42.3851 -103.604,42.3851 -37.7764,0 -75.5835,-14.3563 -104.29,-43.063 -28.7079,-28.7079 -43.063,-66.5138 -43.063,-104.29 0,-37.7788 14.3551,-75.5835 43.0618,-104.29l-0.00236221 -0.00236221c1.15394,-1.15394 2.37402,-2.20158 3.64843,-3.14173zm74.3788 20.3917c-11.498,9.81379 -22.4929,19.2012 -32.8784,28.1079 -16.1362,16.1929 -24.2067,37.552 -24.2067,58.9347 0,21.4276 8.10473,42.8327 24.3118,59.0398 16.2071,16.2071 37.6122,24.3118 59.0398,24.3118 21.1205,0 42.2174,-7.87323 58.3371,-23.6162 84.1383,-107.945 166.165,-205.549 254.59,-292.017 89.8383,-87.8469 186.091,-164.118 297.46,-227.901 44.8583,-25.6949 84.7548,-28.7032 125.107,-31.7433 47.3315,-3.56575 95.4473,-7.19528 150.439,-62.1874 26.5866,-26.5855 35.7709,-69.5906 39.7512,-111.646l-101.128 100.876c-6.87756,7.99489 -17.5618,12.4276 -28.7788,10.8354l0.0106299 -0.0732284 -186.718 -26.5028c-14.7331,-1.0311 -27.2587,-12.215 -29.4166,-27.4276l31.6831 -4.49646 -31.6252 4.37481 -26.4898 -186.65c-2.16496,-10.226 0.714567,-21.3071 8.64568,-29.2583l0.0649607 0.0649607 100.091 -100.345c-43.7103,5.49922 -87.4123,15.5102 -109.121,37.2177 -57.7926,57.7926 -60.4123,102.906 -63.1123,149.421 -2.0126,34.6855 -4.06418,70.0028 -22.0311,111.666 -0.205512,0.54567 -0.424016,1.0878 -0.661418,1.62638l-0.0377953 -0.0165354 -0.00944883 0.0200788 -0.0472441 -0.0212599c-81.9119,186.3 -334.845,402.187 -493.27,537.406z"/>
   <circle id="_408003224" class="fil1" transform="matrix(1.07601 -1.07601 1.07601 1.07601 834.362 1457.23)" r="25.1114"/>
  </g>
 </g>
</svg>
