<?xml version="1.0" encoding="UTF-8"?>
<!DOCTYPE svg PUBLIC "-//W3C//DTD SVG 1.1//EN" "http://www.w3.org/Graphics/SVG/1.1/DTD/svg11.dtd">
<!-- Creator: CorelDRAW -->
<svg xmlns="http://www.w3.org/2000/svg" xml:space="preserve" width="6.82666in" height="6.82666in" style="shape-rendering:geometricPrecision; text-rendering:geometricPrecision; image-rendering:optimizeQuality; fill-rule:evenodd; clip-rule:evenodd"
viewBox="0 0 6.82666 6.82666"
 xmlns:xlink="http://www.w3.org/1999/xlink">
 <defs>
  <style type="text/css">
   <![CDATA[
    .fil1 {fill:none}
    .fil0 {fill:#212121;fill-rule:nonzero}
   ]]>
  </style>
 </defs>
 <g id="Layer_x0020_1">
  <metadata id="CorelCorpID_0Corel-Layer"/>
  <path class="fil0" d="M3.41333 5.34837c-0.0589094,0 -0.106669,0.0477598 -0.106669,0.106669 0,0.0589094 0.0477598,0.106669 0.106669,0.106669l1.12126 0c0.312433,0 0.596398,-0.127744 0.802197,-0.333543 0.205795,-0.205795 0.333539,-0.48976 0.333539,-0.802193 0,-0.312433 -0.12774,-0.596398 -0.333539,-0.802197 -0.205799,-0.205795 -0.48976,-0.333539 -0.802197,-0.333539l-2.24251 0c-0.253551,0 -0.48413,-0.103807 -0.651362,-0.271035 -0.167236,-0.167236 -0.271035,-0.397815 -0.271035,-0.651362 0,-0.253547 0.103807,-0.48413 0.271035,-0.651358 0.167236,-0.167236 0.397815,-0.271039 0.651362,-0.271039l1.12125 0c0.0589094,0 0.106669,-0.0477598 0.106669,-0.106669 0,-0.0589094 -0.0477598,-0.106669 -0.106669,-0.106669l-1.12125 0c-0.312433,0 -0.596398,0.127744 -0.802197,0.333543 -0.205795,0.205795 -0.333539,0.48976 -0.333539,0.802193 0,0.312433 0.12774,0.596398 0.333539,0.802197 0.205799,0.205795 0.48976,0.333539 0.802197,0.333539l2.24251 0c0.253551,0 0.48413,0.103807 0.651362,0.271035 0.167236,0.167236 0.271035,0.397815 0.271035,0.651362 0,0.253547 -0.103807,0.48413 -0.271035,0.651358 -0.167236,0.167236 -0.397815,0.271039 -0.651362,0.271039l-1.12126 0z"/>
  <path class="fil0" d="M3.83888 0.853327l1.17593 0c0.0589094,0 0.106669,0.0477598 0.106669,0.106669l0 0.823256c0,0.0589094 -0.0477598,0.106669 -0.106669,0.106669l-1.17593 0c-0.0328583,0 -0.0622402,-0.0148622 -0.0818071,-0.0382244l-0.406071 -0.418028 0.076252 -0.0741654 -0.0765118 0.0743228c-0.0410472,-0.0422559 -0.0400669,-0.109787 0.00218898,-0.150835 0.00194094,-0.00188583 0.00393701,-0.0036811 0.00598031,-0.00538976l0.405803 -0.393858 0.0741654 0.076252 -0.0742913 -0.0765433c0.0207244,-0.0201142 0.0475236,-0.0301181 0.0742913,-0.0301142l0 -1.1811e-005zm1.06926 0.213339l-1.02643 0 -0.304004 0.295055 0.305854 0.314862 1.02458 0 0 -0.609917z"/>
  <path class="fil0" d="M2.99211 5.15008l-1.02643 0 0 0.609913 1.02458 0 0.305854 -0.314858 -0.304004 -0.295055zm-1.1331 -0.213339l1.17593 0 0 1.1811e-005c0.0267677,-3.93701e-006 0.0535669,0.01 0.0742913,0.0301142l-0.0742913 0.0765433 0.0741654 -0.076252 0.405803 0.393858c0.00204331,0.00170866 0.00403937,0.00350394 0.00598031,0.00538976 0.0422559,0.0410472 0.0432362,0.108579 0.00218898,0.150835l-0.0765118 -0.0743228 0.076252 0.0741654 -0.406071 0.418024c-0.0195669,0.0233622 -0.0489528,0.0382244 -0.0818071,0.0382244l-1.17593 0c-0.0589094,0 -0.106669,-0.0477598 -0.106669,-0.106669l0 -0.823252c0,-0.0589094 0.0477598,-0.106669 0.106669,-0.106669z"/>
  <rect class="fil1" width="6.82666" height="6.82666"/>
 </g>
</svg>
