<?xml version="1.0" encoding="UTF-8"?>
<!DOCTYPE svg PUBLIC "-//W3C//DTD SVG 1.1//EN" "http://www.w3.org/Graphics/SVG/1.1/DTD/svg11.dtd">
<!-- Creator: CorelDRAW -->
<svg xmlns="http://www.w3.org/2000/svg" xml:space="preserve" width="6.82666in" height="6.82666in" style="shape-rendering:geometricPrecision; text-rendering:geometricPrecision; image-rendering:optimizeQuality; fill-rule:evenodd; clip-rule:evenodd"
viewBox="0 0 6.82666 6.82666"
 xmlns:xlink="http://www.w3.org/1999/xlink">
 <defs>
  <style type="text/css">
   <![CDATA[
    .fil2 {fill:none}
    .fil0 {fill:#212121}
    .fil1 {fill:#212121;fill-rule:nonzero}
   ]]>
  </style>
 </defs>
 <g id="Layer_x0020_1">
  <metadata id="CorelCorpID_0Corel-Layer"/>
  <circle class="fil0" cx="3.62667" cy="4.29733" r="0.106668"/>
  <circle class="fil0" cx="4.05333" cy="4.29733" r="0.106668"/>
  <circle class="fil0" cx="4.48" cy="4.29733" r="0.106668"/>
  <circle class="fil0" cx="4.90666" cy="4.29733" r="0.106668"/>
  <circle class="fil0" cx="5.33333" cy="4.29733" r="0.106668"/>
  <path class="fil1" d="M3.4665 3.21554c0.0471732,-0.0349764 0.0570591,-0.101579 0.0220827,-0.148752 -0.0349764,-0.0471732 -0.101579,-0.0570591 -0.148752,-0.0220827l-1.57261 1.1649 -0.00019685 -0.000267717c-0.0473346,0.035063 -0.0572835,0.10187 -0.0222205,0.149205 0.00826772,0.0111614 0.0182992,0.0202441 0.0294252,0.0271457l1.5656 1.1597 0.0633346 -0.0854173 -0.0634921 0.0857126c0.0473346,0.035063 0.114142,0.0251142 0.149205,-0.0222205 0.0141575,-0.0191102 0.0209724,-0.0414016 0.0209528,-0.0634921l3.93701e-006 0 0 -0.000405512 0 -0.475386 2.33966 0c0.0589094,0 0.106669,-0.0477598 0.106669,-0.106669l0 -1.14293c0,-0.0589094 -0.0477598,-0.106669 -0.106669,-0.106669 -0.00325197,0 -0.0064685,0.00015748 -0.00964961,0.000440945l-0.236882 0.00053937c-0.0586811,0 -0.106252,0.0475709 -0.106252,0.106252 0,0.0586811 0.0475709,0.106252 0.106252,0.106252l0.139862 -0.000318898 0 0.92976 -2.33966 0c-0.0589094,0 -0.106669,0.0477598 -0.106669,0.106669l0 0.371114 -1.28733 -0.953579 1.45733 -1.07951z"/>
  <path class="fil1" d="M1.17417 3.19957c0.0586811,-0.00046063 0.105878,-0.0484055 0.105417,-0.107087 -0.00046063,-0.0586811 -0.0484055,-0.105878 -0.107087,-0.105417l-0.0886575 0.000870079 0 -0.932126 2.33966 0c0.0589094,0 0.106669,-0.0477598 0.106669,-0.106669l0 -0.371114 1.28733 0.953583 -1.28733 0.953579 0 -0.371114c0,-0.0589094 -0.0477598,-0.106669 -0.106669,-0.106669 -0.0589094,0 -0.106669,0.0477598 -0.106669,0.106669l0 0.582055 0 0.000405512 3.93701e-006 0c-1.9685e-005,0.0220906 0.00679528,0.0443819 0.0209528,0.0634921 0.035063,0.0473346 0.10187,0.0572835 0.149205,0.0222205l-0.0634921 -0.0857126 0.0633346 0.0854173 1.5656 -1.1597c0.011126,-0.00690157 0.0211575,-0.0159843 0.0294252,-0.0271457 0.035063,-0.0473346 0.0251142,-0.114142 -0.0222205,-0.149205l-0.00019685 0.000267717 -1.56591 -1.15993c-0.0187402,-0.0163268 -0.0432323,-0.0262205 -0.0700394,-0.0262205 -0.0589094,0 -0.106669,0.0477598 -0.106669,0.106669l0 0.475791 -2.33966 0c-0.0589094,0 -0.106669,0.0477598 -0.106669,0.106669l0 1.14611 1.1811e-005 0 -3.93701e-006 0.00104724c0.000574803,0.0589055 0.0488031,0.106189 0.107709,0.105614l-3.93701e-006 -0.000413386 0.195953 -0.0019252z"/>
  <rect class="fil2" width="6.82666" height="6.82666"/>
 </g>
</svg>
