<?xml version="1.0" ?><svg contentScriptType="text/ecmascript" contentStyleType="text/css" enable-background="new 0 0 2048 2048" height="2048px" id="Layer_1" preserveAspectRatio="xMidYMid meet" version="1.1" viewBox="0.0 0 1792.0 2048" width="1792.0px" xml:space="preserve" xmlns="http://www.w3.org/2000/svg" xmlns:xlink="http://www.w3.org/1999/xlink" zoomAndPan="magnify"><path d="M1664,1632V864c-21.333,24-44.333,46-69,66c-178.667,137.333-320.667,250-426,338c-34,28.667-61.667,51-83,67  s-50.167,32.167-86.5,48.5C963.167,1399.833,929,1408,897,1408h-1h-1c-32,0-66.167-8.167-102.5-24.5S727.333,1351,706,1335  s-49-38.333-83-67c-105.333-88-247.333-200.667-426-338c-24.667-20-47.667-42-69-66v768c0,8.667,3.167,16.167,9.5,22.5  s13.833,9.5,22.5,9.5h1472c8.667,0,16.167-3.167,22.5-9.5S1664,1640.667,1664,1632z M1664,581v-11v-13.5c0,0-0.167-4.333-0.5-13  s-1.333-12.833-3-12.5s-3.5-2.667-5.5-9s-5-8.833-9-7.5s-8.667,0.5-14-2.5H160c-8.667,0-16.167,3.167-22.5,9.5S128,535.333,128,544  c0,112,49,206.667,147,284c128.667,101.333,262.333,207,401,317c4,3.333,15.667,13.167,35,29.5s34.667,28.833,46,37.5  s26.167,19.167,44.5,31.5s35.167,21.5,50.5,27.5s29.667,9,43,9h1h1c13.333,0,27.667-3,43-9s32.167-15.167,50.5-27.5  s33.167-22.833,44.5-31.5c11.333-8.667,26.667-21.167,46-37.5s31-26.167,35-29.5c138.667-110,272.333-215.667,401-317  c36-28.667,69.5-67.167,100.5-115.5S1664,620.333,1664,581z M1792,544v1088c0,44-15.667,81.667-47,113s-69,47-113,47H160  c-44,0-81.667-15.667-113-47s-47-69-47-113V544c0-44,15.667-81.667,47-113s69-47,113-47h1472c44,0,81.667,15.667,113,47  S1792,500,1792,544z"/></svg>