<?xml version="1.0" encoding="UTF-8"?>
<!DOCTYPE svg PUBLIC "-//W3C//DTD SVG 1.1//EN" "http://www.w3.org/Graphics/SVG/1.1/DTD/svg11.dtd">
<!-- Creator: CorelDRAW -->
<svg xmlns="http://www.w3.org/2000/svg" xml:space="preserve" width="2048px" height="2048px" style="shape-rendering:geometricPrecision; text-rendering:geometricPrecision; image-rendering:optimizeQuality; fill-rule:evenodd; clip-rule:evenodd"
viewBox="0 0 2048 2048"
 xmlns:xlink="http://www.w3.org/1999/xlink">
 <defs>
  <style type="text/css">
   <![CDATA[
    .fil1 {fill:none}
    .fil0 {fill:#212121;fill-rule:nonzero}
   ]]>
  </style>
 </defs>
 <g id="Layer_x0020_1">
  <metadata id="CorelCorpID_0Corel-Layer"/>
  <g id="_409289632">
   <g>
    <path id="_409290616" class="fil0" d="M1105.72 917.128c-12.8398,-12.0803 -33.0449,-11.465 -45.1252,1.3748 -12.0803,12.8398 -11.465,33.0449 1.3748,45.1252 27.6036,26.0055 73.2768,68.1402 117.436,108.878 34.239,31.5862 67.5945,62.3563 89.4839,82.7694l103.825 96.8186c6.09804,5.68701 9.31654,13.324 9.58583,21.0461 0.262205,7.50001 -2.17559,15.078 -7.36418,21.0839l-0.0188977 -0.0188977 -0.0011811 0.0011811 -0.00236221 -0.00236221c-0.263386,0.263386 -0.520867,0.531496 -0.773623,0.804331l-0.0011811 -0.0011811 -0.115748 0.127559 -0.393307 0.432284 -0.11811 0.134646 -0.370866 0.426378c-5.56182,5.41772 -12.7536,8.28426 -20.0197,8.5382 -7.49882,0.262205 -15.0768,-2.17559 -21.0827,-7.36536l0.0188977 -0.0188977 -0.0011811 -0.0011811 0.00236221 -0.00236221c-0.263386,-0.263386 -0.531496,-0.520867 -0.804331,-0.773623l0.0011811 -0.0011811 -0.127559 -0.115748 -0.432284 -0.393307 -0.134646 -0.11811 -0.511418 -0.441733 -0.0744095 -0.0625985 -0.538583 -0.442914 -0.122835 -0.0980316 -0.532678 -0.414567 -0.0732284 -0.0555119c-0.842127,-0.635434 -1.70669,-1.2248 -2.5937,-1.76811l-0.0519685 -0.0318898 -0.616536 -0.366142 -0.0767717 -0.0437008 -0.607087 -0.341339 -0.11811 -0.0637796 -0.56693 -0.298819 -0.120473 -0.0625985 -0.61063 -0.302362 -0.0838583 -0.0401575 -0.572835 -0.26811 -0.188977 -0.0850394 -0.565748 -0.246851 -0.127559 -0.0531496 -0.546851 -0.223229 -0.256299 -0.100394 -0.416929 -0.158268 -0.357874 -0.129921 -0.401575 -0.140551 -0.292914 -0.0980316 -0.45 -0.146457 -0.307087 -0.0956694 -0.386221 -0.114567 -0.411024 -0.115748 -0.354331 -0.0968505 -0.335433 -0.0850394 -0.442914 -0.108662 -0.311811 -0.0720473 -0.414567 -0.0921261 -0.356693 -0.0732284 -0.399213 -0.0779528 -0.369685 -0.0673229 -0.399213 -0.0673229 -0.320079 -0.0507874 -0.451181 -0.0649607 -0.325985 -0.0437008 -0.446457 -0.0531496 -0.285827 -0.0307087 -0.479528 -0.0472441 -0.305906 -0.0259843 -0.467717 -0.0330709 -0.253937 -0.0153543 -0.587008 -0.0283465 -0.126378 -0.00472441 -0.578741 -0.0141732 -0.248032 -0.00354331 -0.576378 0 -0.129921 0.0011811 -0.655512 0.0153543 -0.0897638 0.00354331 -0.662599 0.0307087 -0.129921 0.00708662 -0.646063 0.046063 -0.0944883 0.00826772c-0.483071,0.0413386 -0.96378,0.090945 -1.44449,0.153543l-0.0744095 0.0106299c-0.488977,0.0649607 -0.975591,0.13937 -1.46102,0.226772l-0.0389764 0.00708662c-0.750001,0.135827 -1.49646,0.298819 -2.23701,0.487796l-0.00236221 0c-0.496063,0.126378 -0.992127,0.266929 -1.48347,0.418111l-0.00236221 0c-0.243307,0.0744095 -0.486615,0.153543 -0.728741,0.23504l-0.011811 0.00354331c-0.97441,0.327166 -1.93701,0.699213 -2.88189,1.12205l-0.0153543 0.00708662 -0.668504 0.308268 -0.0696851 0.0330709 -0.616536 0.303544 -0.115748 0.0590552 -0.596457 0.311811 -0.0590552 0.0318898 -0.636615 0.35315 -0.0555119 0.0330709 -0.6 0.351969 -0.101575 0.0614174 -0.563386 0.349607 -0.129921 0.0838583 -0.512599 0.336614 -0.180709 0.122835 -0.468898 0.324803 -0.186614 0.133465 -0.453544 0.330709 -0.222047 0.167717 -0.38504 0.297638 -0.274016 0.216142 -0.364961 0.296457 -0.240945 0.201969 -0.393307 0.336614 -0.20315 0.178347 -0.388583 0.348425 -0.238583 0.220866 -0.387402 0.367323 -0.135827 0.131102 -0.3 0.292914 -0.18189 0.187795 -0.0602363 0.0614174c-0.177165,0.183071 -0.355512,0.364961 -0.527953,0.550394l-0.0129921 0.0141732c-2.43425,2.61024 -4.35,5.5252 -5.74961,8.61969l-0.0248032 0.0543308 -0.298819 0.68504 -0.00354331 0.0106299 -0.26811 0.655512 -0.0590552 0.151181 -0.20315 0.53504 -0.0874016 0.240945 -0.183071 0.523229 -0.0578741 0.168898 -0.184252 0.568111 -0.0578741 0.188977 -0.147638 0.494882 -0.0897638 0.316536 -0.122835 0.455906 -0.0614174 0.236221 -0.129921 0.532678 -0.0519685 0.222047 -0.109843 0.500788 -0.0578741 0.279921 -0.0921261 0.47126 -0.0543308 0.301181 -0.0791339 0.467717 -0.0413386 0.257481 -0.0732284 0.506693 -0.0366142 0.275197 -0.0590552 0.496063 -0.0271654 0.242126 -0.0496063 0.516142 -0.022441 0.274016 -0.0366142 0.497244 -0.0141732 0.231496 -0.0283465 0.604725 -0.00354331 0.109843 -0.0153543 0.590552 -0.00354331 0.243307 0 0.576378 0.0011811 0.134646 0.0153543 0.647245 0.00354331 0.103937 0.0295276 0.643701 0.00944883 0.153543 0.0437008 0.616536 0.0106299 0.126378c0.0389764,0.468898 0.0897638,0.938977 0.15,1.40669l0.0165354 0.120473c0.0625985,0.470079 0.134646,0.940158 0.218504,1.40788l0.0188977 0.100394c0.0862205,0.478347 0.184252,0.954331 0.292914,1.42913l0.0141732 0.0614174 0.162992 0.673229 0.0236221 0.0921261c0.119291,0.465355 0.251575,0.929528 0.392126,1.39016l0.034252 0.111024 0.196063 0.612993 0.0437008 0.12874 0.21378 0.615355 0.0377953 0.103937 0.236221 0.627166 0.0354331 0.0921261 0.258662 0.640158 0.0271654 0.0649607 0.266929 0.617717 0.0732284 0.164173 0.233858 0.506693 0.106299 0.222047 0.231496 0.470079 0.13937 0.272835 0.222047 0.422835 0.120473 0.223229 0.269292 0.486615 0.134646 0.233858 0.239764 0.408662 0.170079 0.281103 0.243307 0.390945 0.198425 0.309449 0.218504 0.333071 0.245669 0.361418 0.197244 0.284646 0.266929 0.372048 0.197244 0.270473 0.317717 0.421654 0.141732 0.183071 0.366142 0.461811 0.141732 0.174803 0.36378 0.434646 0.170079 0.198425 0.362599 0.411024 0.167717 0.187795 0.39567 0.426378 0.178347 0.187795 0.324803 0.334252 0.177165 0.18189 0.00236221 -0.00236221c0.262205,0.262205 0.529134,0.52441 0.80315,0.779528l20.7614 -22.265 -20.6894 22.2355 0.0011811 0.0011811 0.00708662 0.00590552 59.0115 55.0311 -0.034252 0.034252 0.0011811 0.0011811 -0.00236221 0.00236221c0.263386,0.263386 0.531496,0.519685 0.80315,0.772442l-0.0011811 0.00236221 0.187795 0.170079 0.335433 0.305906 0.231496 0.204331 0.367323 0.317717c5.42008,5.56063 8.28544,12.7536 8.53938,20.0197 0.262205,7.49882 -2.17559,15.0768 -7.36418,21.0827l-0.0188977 -0.0188977 -0.0011811 0.0011811 -0.00236221 -0.00236221c-0.263386,0.263386 -0.520867,0.531496 -0.773623,0.804331l-0.0011811 -0.0011811 -0.115748 0.127559 -0.393307 0.432284 -0.11811 0.134646 -0.370866 0.426378c-5.563,5.4189 -12.7547,8.28544 -20.0209,8.53938 -7.85906,0.274016 -15.8079,-2.41654 -21.9402,-8.13544l-29.8973 -27.8799 -43.5 46.7504c6.09804,5.68701 9.31654,13.3252 9.58583,21.0473 0.274016,7.85906 -2.41536,15.8067 -8.13308,21.939 -5.68583,6.09804 -13.3252,9.31654 -21.0461,9.58583 -7.86024,0.274016 -15.8091,-2.41536 -21.9414,-8.13426l-58.3831 -54.443c-0.226772,-0.240945 -0.453544,-0.478347 -0.688583,-0.713386l-0.00236221 0.00236221 -0.0011811 -0.0011811 -0.034252 0.034252 -0.814961 -0.760631 0.0484252 -0.0519685c-12.9248,-12.0532 -33.1748,-11.3457 -45.228,1.57914 -11.7969,12.652 -11.3681,32.3197 0.778347,44.452l-0.0011811 0.0011811 0.0755906 0.0744095 0.366142 0.355512 0.240945 0.231496 0.119291 0.113386 0.0011811 -0.00236221c0.368504,0.343701 0.741733,0.676772 1.12087,1.00039 5.4189,5.56182 8.28544,12.7536 8.53938,20.0197 0.262205,7.49882 -2.17559,15.0768 -7.36418,21.0827l-0.0188977 -0.0188977 -0.0011811 0.0011811 -0.00236221 -0.00236221c-0.263386,0.263386 -0.520867,0.531496 -0.773623,0.804331l-0.0011811 -0.0011811 -0.115748 0.127559 -0.393307 0.432284 -0.11811 0.134646 -0.441733 0.511418 -0.0625985 0.0744095 -0.346063 0.416929c-5.47441,5.04685 -12.5138,7.7256 -19.6807,7.97717 -7.76339,0.272835 -15.6331,-2.39764 -21.7288,-8.08229l-0.022441 -0.0212599 0.0484252 -0.0519685c-0.81378,-0.760631 -1.65709,-1.47047 -2.5252,-2.12953 -23.7118,-21.9756 -54.7111,-47.7756 -89.4851,-76.7186 -134.558,-111.996 -328.474,-273.398 -308.69,-379.248l-31.3748 -5.87481 31.4551 5.87953c2.23229,-11.9457 -2.48504,-23.5819 -11.2984,-30.7406l-115.547 -107.749 246.402 -264.233c20.0209,18.6591 24.7122,23.0103 28.0512,26.1378 9.37914,8.7815 10.0429,9.47717 49.0359,46.1091 12.8398,12.0803 33.0449,11.465 45.1252,-1.3748 12.0803,-12.8398 11.465,-33.0449 -1.3748,-45.1252 -6.84686,-6.43229 -6.44882,-6.00237 -49.2863,-46.1091 -34.2532,-32.0705 -44.3174,-41.5359 -49.793,-46.6548 -0.485433,-0.516142 -0.987402,-1.02047 -1.51299,-1.51063 -12.9248,-12.0532 -33.1748,-11.3457 -45.228,1.57914l23.4036 21.8244 -23.3752 -21.75 -288.476 309.353c-0.512599,0.48189 -1.01457,0.982678 -1.50118,1.50473 -12.0532,12.9248 -11.3457,33.1748 1.57914,45.228l21.8244 -23.4036 -21.75 23.3752 128.795 120.103c-6.73701,139.06 192.613,305.008 332.786,421.677 34.3677,28.604 65.0091,54.1087 86.8512,74.3292 0.693308,0.787796 1.43032,1.54961 2.21339,2.28189l21.848 -23.3811 -21.75 23.3752 0.0720473 0.0673229c18.9225,17.6469 43.3559,25.9311 67.48,25.0831 22.8272,-0.80315 45.4264,-9.87993 62.8146,-27.0307l0.194882 -0.166536 0.198425 -0.170079 0.411024 -0.362599 0.187795 -0.167717 0.426378 -0.39567 0.187795 -0.178347 0.334252 -0.324803 0.18189 -0.177165 -0.00236221 -0.00236221c0.262205,-0.262205 0.52441,-0.529134 0.779528,-0.80315l-23.4036 -21.8232 23.3752 21.75c7.30985,-7.84016 13.0169,-16.6181 17.1366,-25.9205 18.0662,14.4638 40.1988,21.2374 62.0516,20.4756 24.2162,-0.844489 48.1004,-10.8602 65.7957,-29.837 10.0748,-10.8047 17.1059,-23.3918 21.1323,-36.6803 9.15591,2.47205 18.6059,3.53859 28.0028,3.21024 23.3752,-0.817323 46.4398,-10.1776 63.9284,-27.8929l0.415748 -0.386221 0.187795 -0.178347 0.334252 -0.324803 0.18189 -0.177165 -0.00236221 -0.00236221c0.262205,-0.262205 0.52441,-0.529134 0.779528,-0.80315l-0.0519685 -0.0484252 0.022441 -0.0236221 -22.2355 -20.6894 -1.13858 -1.06181 23.3752 21.75c17.6634,-18.9437 25.9736,-43.3618 25.1339,-67.4398 -0.765355,-21.9307 -9.05198,-43.5898 -24.7051,-60.6248 8.27245,-4.3689 16.0039,-10.037 22.8744,-16.9984l0.415748 -0.386221 0.187795 -0.178347 0.334252 -0.324803 0.18189 -0.177165 -0.00236221 -0.00236221c0.262205,-0.262205 0.52441,-0.529134 0.779528,-0.80315l-0.0519685 -0.0484252 0.022441 -0.0236221 -22.2355 -20.6894 -1.13858 -1.06181 23.3752 21.75c17.6634,-18.9437 25.976,-43.3618 25.1339,-67.441 -0.844489,-24.2173 -10.8614,-48.0992 -29.837,-65.7957l-103.825 -96.8186c-23.8347,-22.2272 -56.3493,-52.2213 -89.7343,-83.0197 -44.8855,-41.4083 -91.3205,-84.2446 -116.935,-108.377zm274.279 447.094l-0.00236221 0.0011811 -10.7055 11.5051 1.03583 -1.11142 9.67205 -10.3949z"/>
    <path id="_409290424" class="fil0" d="M1107.06 1258.02c-12.9095,-12.0118 -33.1134,-11.2843 -45.1252,1.6252 -12.0118,12.9095 -11.2843,33.1134 1.6252,45.1252l183.868 171.46c12.9095,12.0118 33.1134,11.2843 45.1252,-1.6252 12.0118,-12.9095 11.2843,-33.1134 -1.6252,-45.1252l-183.868 -171.46z"/>
    <path id="_409291120" class="fil0" d="M940.202 1272.9c-12.9095,-12.0118 -33.1134,-11.2843 -45.1252,1.6252 -12.0118,12.9095 -11.2843,33.1134 1.6252,45.1252l233.38 217.631c12.9095,12.0118 33.1134,11.2843 45.1252,-1.6252 12.0118,-12.9095 11.2843,-33.1134 -1.6252,-45.1252l-233.38 -217.631z"/>
    <path id="_409290520" class="fil0" d="M1149.62 1127.23c-12.9095,-12.0118 -33.1134,-11.2843 -45.1252,1.6252 -12.0118,12.9095 -11.2843,33.1134 1.6252,45.1252l226.336 211.061c12.9095,12.0118 33.1134,11.2843 45.1252,-1.6252 12.0118,-12.9095 11.2843,-33.1134 -1.6252,-45.1252l-226.336 -211.061z"/>
    <path id="_409290544" class="fil0" d="M666.873 1233.98c12.6331,-12.287 12.913,-32.4922 0.625985,-45.1252 -12.287,-12.6331 -32.4922,-12.913 -45.1252,-0.625985l-39.1252 38.0398c-18.4394,17.9268 -28.324,41.7059 -29.1626,65.7438 -0.83504,23.9339 7.3252,48.0851 24.9591,66.9934 7.3252,7.8567 15.7134,14.1744 24.7441,18.9437 -15.652,17.0362 -23.941,38.6929 -24.7063,60.6248 -0.839764,24.0792 7.4693,48.4973 25.1351,67.441l23.3752 -21.75 -1.11142 1.03583 -22.2626 20.7154 0.022441 0.0248032 -0.0519685 0.0484252c0.256299,0.272835 0.516142,0.540945 0.778347,0.80315l-0.0011811 0.0011811 0.122835 0.119291 0.435827 0.424016 0.0826772 0.0791339 0.486615 0.452363c17.4886,17.7095 40.5485,27.0685 63.9201,27.8823 9.40749,0.328347 18.8681,-0.740552 28.0323,-3.21851 4.02992,13.3205 11.0516,25.9122 21.1016,36.6898l23.3752 -21.75 -1.11142 1.03583 -22.2626 20.7154 0.022441 0.0248032 -0.0519685 0.0484252c0.256299,0.272835 0.516142,0.540945 0.778347,0.80315l-0.0011811 0.0011811 0.122835 0.119291 0.435827 0.424016 0.0826772 0.0791339 0.486615 0.452363c17.5288,17.7473 40.6347,27.0307 64.0465,27.75 21.7961,0.668504 43.8638,-6.16182 61.8709,-20.5642 4.13032,9.42166 9.85631,18.2799 17.191,26.1437l0.0673229 0.0720473 23.3752 -21.75 -23.3811 21.848c0.929528,0.994489 1.90866,1.91693 2.92796,2.76732 17.3728,17.0752 39.9201,26.1106 62.6953,26.9138l1.12559 -31.8756 -1.12795 31.9807c1.09724,0.0389764 2.18268,0.0212599 3.25512,-0.0484252 23.0256,0.0496063 46.128,-8.26182 64.2272,-25.1398l0.0720473 -0.0673229 -21.75 -23.3752 21.848 23.3811c0.761812,-0.712205 1.4811,-1.45394 2.15788,-2.21929 3.4441,-3.16181 7.74922,-6.99567 12.7961,-11.4106 4.16339,-3.64134 10.2272,-8.79213 17.8252,-15.1618 13.5307,-11.3221 15.3213,-31.4693 3.99922,-45 -11.3221,-13.5307 -31.4693,-15.3213 -45,-3.99922 -5.38937,4.51772 -11.5795,9.82442 -18.8244,16.161 -4.47166,3.91181 -9.16064,8.13426 -14.1331,12.7453 -0.864568,0.656693 -1.70551,1.36417 -2.51693,2.12244l0.0484252 0.0519685 -0.022441 0.0212599c-5.60315,5.22284 -12.7382,7.90158 -19.9382,8.09056 -0.591733,-0.0531496 -1.18701,-0.0921261 -1.78819,-0.113386l-0.00354331 0.105118c-7.1563,-0.251575 -14.1862,-2.92441 -19.6583,-7.95827 -0.462992,-0.56693 -0.944883,-1.12441 -1.45276,-1.66772l-0.0519685 0.0484252 -0.0212599 -0.022441c-3.92953,-4.21418 -6.4193,-9.21615 -7.48938,-14.4 -1.15866,-5.61496 -0.779528,-11.4839 1.11378,-16.8957 0.758268,-2.16851 1.76339,-4.92993 2.56063,-7.12323 6.7004,-18.4181 9.88465,-27.065 -7.25788,-41.7674 -22.8662,-19.4929 -31.2709,-11.061 -47.0504,4.93701 -1.24606,1.2626 -2.93386,2.97284 -5.56654,5.42835l-36.75 34.2697 -0.285827 0.239764 -0.186614 0.155906 -0.398032 0.34252 -0.244488 0.216142 -0.325985 0.296457 -0.19252 0.174803 0.0011811 0.00236221c-0.270473,0.252756 -0.539764,0.509056 -0.804331,0.773623l0.00236221 0.00236221 -0.0011811 0.0011811 0.0188977 0.0188977c-6.05315,5.23701 -13.6748,7.72796 -21.2055,7.49646 -7.22599,-0.222047 -14.3764,-3.03544 -19.898,-8.40591l-0.316536 -0.366142 -0.204331 -0.231496 -0.305906 -0.335433 -0.170079 -0.187795 -0.00236221 0.0011811c-0.252756,-0.270473 -0.509056,-0.539764 -0.772442,-0.80315l-0.00236221 0.00236221 -0.0011811 -0.0011811 -0.0188977 0.0188977c-4.75276,-5.48977 -7.20001,-12.2091 -7.38071,-18.9225 -0.197244,-7.31221 2.16851,-14.648 7.04292,-20.478 0.346063,-0.414567 3.33307,-3.48662 6.73229,-6.9567 2.88071,-2.94095 5.95748,-6.0567 8.16851,-8.27481l2.84292 -2.82166 0.120473 -0.113386 -0.00236221 -0.00354331 0.728741 -0.722835 0.0637796 0.0649607c12.5433,-12.4476 12.6213,-32.7107 0.173622,-45.254 -12.4476,-12.5433 -32.7107,-12.6213 -45.254,-0.173622l0.0507874 0.0519685c-0.936615,0.918898 -2.50276,2.48268 -4.37717,4.37008l-13.4055 13.3028c-0.35315,0.302362 -0.701575,0.61063 -1.0441,0.929528l0.0484252 0.0519685 -24.124 22.4941 -0.287008 0.240945 -0.186614 0.155906 -0.398032 0.34252 -0.244488 0.216142 -0.325985 0.296457 -0.19252 0.174803 0.0011811 0.00236221c-0.270473,0.252756 -0.539764,0.509056 -0.804331,0.773623l0.00236221 0.00236221 -0.0011811 0.0011811 0.0188977 0.0188977c-6.00473,5.18859 -13.5827,7.62638 -21.0815,7.36418 -7.26733,-0.252756 -14.4602,-3.11811 -20.0209,-8.53701l-0.317717 -0.367323 -0.204331 -0.231496 -0.305906 -0.335433 -0.170079 -0.187795 -0.00236221 0.0011811c-0.252756,-0.270473 -0.509056,-0.539764 -0.772442,-0.80315l-0.00236221 0.00236221 -0.0011811 -0.0011811 -0.0188977 0.0188977c-5.18977,-6.00591 -7.62756,-13.585 -7.36536,-21.0839 0.269292,-7.72087 3.48898,-15.3591 9.58702,-21.0461l59.8607 -55.8213 -43.5 -46.7504c-6.13229,5.7189 -14.0811,8.40827 -21.9402,8.13426 -7.72087,-0.269292 -15.3602,-3.4878 -21.0461,-9.58583 -5.62559,-6.03189 -8.22757,-13.7835 -7.95827,-21.4925 0.276378,-7.9441 3.63662,-15.8941 9.91064,-21.9933l39.1252 -38.0398zm163.761 316.405l10.8284 11.6374 0 -0.00236221 -9.74056 -10.4681 -1.0878 -1.16693zm528.5 -353.103c-10.4244,14.2205 -7.34528,34.2012 6.8752,44.6256 14.2205,10.4244 34.2012,7.34528 44.6256,-6.8752 19.7268,-26.889 35.3032,-53.6622 45.1122,-79.8733 8.2382,-22.0087 12.3827,-43.5922 11.5606,-64.5166l128.842 -120.148 -21.75 -23.3752 21.8244 23.4036c12.9248,-12.0532 13.6323,-32.3032 1.57914,-45.228 -0.486615,-0.522048 -0.988583,-1.02284 -1.50118,-1.50473l-288.476 -309.353 -23.3752 21.75 23.4036 -21.8244c-12.0532,-12.9248 -32.3032,-13.6323 -45.228,-1.57914 -0.525591,0.490158 -1.02756,0.994489 -1.51299,1.51063 -5.47559,5.1189 -15.5398,14.5843 -49.793,46.6548 -42.8374,40.1067 -42.4394,39.6768 -49.2863,46.1091 -12.8398,12.0803 -13.4551,32.2855 -1.3748,45.1252 12.0803,12.8398 32.2855,13.4551 45.1252,1.3748 38.9929,-36.6319 39.6567,-37.3276 49.0359,-46.1091 3.33898,-3.12756 8.03032,-7.47875 28.0512,-26.1378l246.402 264.233 -115.547 107.749c-8.81339,7.15867 -13.5307,18.7949 -11.2984,30.7406l31.4551 -5.87953 -31.3748 5.87481c2.72126,14.5583 0.167717,31.0394 -6.51024,48.8811 -7.5378,20.1402 -20.3091,41.8087 -36.8634,64.3725z"/>
    <path id="_409290952" class="fil0" d="M1093.92 930.3c12.4949,12.4949 32.7555,12.4949 45.2504,0 12.4949,-12.4949 12.4949,-32.7555 0,-45.2504 -22.0394,-22.0394 -67.8804,-39.0555 -113.532,-44.6469 -42.1052,-5.1567 -86.302,-1.03347 -114.987,17.1496 -25.2106,15.9791 -49.7091,23.1484 -70.6075,24.4807 -22.3087,1.42205 -38.6256,-2.99882 -45.0154,-9.67324l-0.173622 -0.188977c-0.337796,-0.43937 -0.201969,-1.87914 0.487796,-4.33229 2.14016,-7.60394 8.6067,-17.1567 20.3315,-28.3819 4.36418,-4.17874 9.34961,-8.45316 14.9858,-12.7973 20.7697,-16.0099 37.2083,-27.9673 55.3182,-35.9847 17.7378,-7.85197 38.5713,-12.5669 69.1749,-14.6421 19.6311,-1.33228 41.4485,0.804331 64.3264,3.0437 51.6048,5.05158 107.942,10.5685 170.497,-14.5913 16.3606,-6.55749 24.3083,-25.1398 17.7508,-41.5004 -6.55749,-16.3606 -25.1398,-24.3083 -41.5004,-17.7508 -48.2339,19.3996 -96.5198,14.6717 -140.747,10.3417 -25.8,-2.52638 -50.4036,-4.93465 -74.576,-3.2941 -38.7744,2.62914 -66.176,9.04725 -90.6757,19.8933 -24.1299,10.6831 -43.9394,25.0016 -68.5678,43.9855 -7.55552,5.82284 -14.2878,11.602 -20.237,17.2973 -20.4248,19.5543 -32.5028,39.091 -37.5803,57.13 -6.52796,23.1945 -2.28662,43.9748 10.513,60.5835 1.47874,1.91693 3.0378,3.73347 4.67363,5.44016 17.948,18.7477 53.1556,31.8414 95.0139,29.1733 30.6107,-1.95236 65.7756,-11.9953 100.858,-34.2319 15.2351,-9.6567 43.8166,-11.2217 72.9875,-7.64882 32.8937,4.02874 63.7855,14.1496 76.0323,26.3965z"/>
    <path id="_409290928" class="fil0" d="M928.457 1501.16c12.4949,-12.4264 12.5516,-32.6303 0.125197,-45.1252 -12.4264,-12.4949 -32.6303,-12.5516 -45.1252,-0.125197l-51.0367 50.5028c-12.4949,12.4264 -12.5516,32.6303 -0.125197,45.1252 12.4264,12.4949 32.6303,12.5516 45.1252,0.125197l51.0367 -50.5028z"/>
    <path id="_409290736" class="fil0" d="M830.346 1420.85c12.4949,-12.4264 12.5516,-32.6303 0.125197,-45.1252 -12.4264,-12.4949 -32.6303,-12.5516 -45.1252,-0.125197l-51.0378 50.5028c-12.4949,12.4264 -12.5516,32.6303 -0.125197,45.1252 12.4264,12.4949 32.6303,12.5516 45.1252,0.125197l51.0378 -50.5028z"/>
    <path id="_409290880" class="fil0" d="M743.509 1335.83c13.2543,-11.5973 14.5973,-31.7457 3,-45 -11.5973,-13.2543 -31.7457,-14.5973 -45,-3l-38.2618 33.4689c-13.2543,11.5973 -14.5973,31.7457 -3,45 11.5973,13.2543 31.7457,14.5973 45,3l38.2618 -33.4689z"/>
   </g>
   <path id="_409290688" class="fil0" d="M1782 869.283c12.7713,-12.15 13.2744,-32.354 1.12441,-45.1252 -12.15,-12.7713 -32.354,-13.2744 -45.1252,-1.12441l-65.5123 62.2571 -307.051 -330.671 74.8524 -71.1331c12.7713,-12.15 13.2744,-32.354 1.12441,-45.1252 -12.15,-12.7713 -32.354,-13.2744 -45.1252,-1.12441l-96.0591 91.2863c-0.486615,0.401575 -0.964961,0.817323 -1.43386,1.25197 -12.9508,12.0248 -13.6996,32.2736 -1.6748,45.2244l23.4496 -21.7748 -23.3752 21.75 349.001 375.846c0.527953,0.650788 1.08425,1.28504 1.67008,1.90158 12.1736,12.8102 32.4307,13.3264 45.241,1.15276l-22.0441 -23.1969 22.0004 23.1248 88.9383 -84.5198z"/>
   <path id="_409290256" class="fil0" d="M310.001 808.052c-12.7713,-12.15 -32.9752,-11.6469 -45.1252,1.12441 -12.15,12.7713 -11.6469,32.9752 1.12441,45.1252l88.9383 84.5186 22.0004 -23.1248 -22.0441 23.1969c12.8102,12.1736 33.0673,11.6575 45.241,-1.15276 0.585827,-0.616536 1.14213,-1.25079 1.67008,-1.90158l349.001 -375.846 -23.3752 -21.75 23.4496 21.7748c12.0248,-12.9508 11.276,-33.1996 -1.6748,-45.2244 -0.468898,-0.434646 -0.947245,-0.850394 -1.43386,-1.25197l-96.0579 -91.2851c-12.7713,-12.15 -32.9752,-11.6469 -45.1252,1.12441 -12.15,12.7713 -11.6469,32.9752 1.12441,45.1252l74.8512 71.1319 -307.053 330.671 -65.5111 -62.256z"/>
  </g>
 </g>
</svg>
