<?xml version="1.0" encoding="UTF-8"?>
<!DOCTYPE svg PUBLIC "-//W3C//DTD SVG 1.1//EN" "http://www.w3.org/Graphics/SVG/1.1/DTD/svg11.dtd">
<!-- Creator: CorelDRAW -->
<svg xmlns="http://www.w3.org/2000/svg" xml:space="preserve" width="6.82666in" height="6.82666in" style="shape-rendering:geometricPrecision; text-rendering:geometricPrecision; image-rendering:optimizeQuality; fill-rule:evenodd; clip-rule:evenodd"
viewBox="0 0 6.82666 6.82666"
 xmlns:xlink="http://www.w3.org/1999/xlink">
 <defs>
  <style type="text/css">
   <![CDATA[
    .fil1 {fill:none}
    .fil0 {fill:#212121;fill-rule:nonzero}
   ]]>
  </style>
 </defs>
 <g id="Layer_x0020_1">
  <metadata id="CorelCorpID_0Corel-Layer"/>
  <path class="fil0" d="M3.97978 2.25442c0,-0.0589094 -0.0477598,-0.106669 -0.106669,-0.106669 -0.0589094,0 -0.106669,0.0477598 -0.106669,0.106669l0 1.5429c0,0.0589094 0.0477598,0.106669 0.106669,0.106669 0.00312205,0 0.00620866,-0.000141732 0.00925984,-0.000405512l1.34063 0.00183465 0 0.263917 0 0.414276c0,0.0589094 0.0477598,0.106669 0.106669,0.106669 0.0589094,0 0.106669,-0.0477598 0.106669,-0.106669l0 -0.414276 0 -0.370024 -3.93701e-006 0c0,-0.0588425 -0.0476575,-0.106587 -0.10652,-0.106665l-0.000145669 0.106665 0 -0.106252 -1.34989 -0.00184646 0 -1.4368z"/>
  <path class="fil0" d="M2.5286 0.994465l1.78927 0c0.0589094,0 0.106669,0.0477598 0.106669,0.106669l0 1.14191c0,0.0589094 -0.0477598,0.106669 -0.106669,0.106669l-1.78927 0c-0.0589094,0 -0.106669,-0.0477598 -0.106669,-0.106669l0 -1.14191c0,-0.0589094 0.0477598,-0.106669 0.106669,-0.106669zm1.6826 0.213339l-1.57593 0 0 0.928571 1.57593 0 0 -0.928571z"/>
  <path class="fil0" d="M3.53162 2.25442c0,-0.0589094 -0.0477598,-0.106669 -0.106669,-0.106669 -0.0589094,0 -0.106669,0.0477598 -0.106669,0.106669l0 2.29338c0,0.0589094 0.0477598,0.106669 0.106669,0.106669 0.0589094,0 0.106669,-0.0477598 0.106669,-0.106669l0 -2.29338z"/>
  <path class="fil0" d="M3.08346 2.25442c0,-0.0589094 -0.0477598,-0.106669 -0.106669,-0.106669 -0.0589094,0 -0.106669,0.0477598 -0.106669,0.106669l0 1.4368 -1.34989 0.00184646 0 0.106252 -0.000145669 -0.106665c-0.0588622,7.87402e-005 -0.10652,0.0478228 -0.10652,0.106665l-3.93701e-006 0 0 0.784299c0,0.0589094 0.0477598,0.106669 0.106669,0.106669 0.0589094,0 0.106669,-0.0477598 0.106669,-0.106669l0 -0.678193 1.34063 -0.00183465c0.00305118,0.00026378 0.0061378,0.000405512 0.00925984,0.000405512 0.0589094,0 0.106669,-0.0477598 0.106669,-0.106669l0 -1.5429z"/>
  <path class="fil0" d="M0.96 4.47695l1.074 0c0.0589094,0 0.106669,0.0477598 0.106669,0.106669l0 1.14191c0,0.0589094 -0.0477598,0.106669 -0.106669,0.106669l-1.074 0c-0.0589094,0 -0.106669,-0.0477598 -0.106669,-0.106669l0 -1.14191c0,-0.0589094 0.0477598,-0.106669 0.106669,-0.106669zm0.967335 0.213339l-0.860665 0 0 0.928571 0.860665 0 0 -0.928571z"/>
  <path class="fil0" d="M2.88794 4.47695l1.074 0c0.0589094,0 0.106669,0.0477598 0.106669,0.106669l0 1.14191c0,0.0589094 -0.0477598,0.106669 -0.106669,0.106669l-1.074 0c-0.0589094,0 -0.106669,-0.0477598 -0.106669,-0.106669l0 -1.14191c0,-0.0589094 0.0477598,-0.106669 0.106669,-0.106669zm0.967335 0.213339l-0.860665 0 0 0.928571 0.860665 0 0 -0.928571z"/>
  <path class="fil0" d="M4.79266 4.47695l1.074 0c0.0589094,0 0.106669,0.0477598 0.106669,0.106669l0 1.14191c0,0.0589094 -0.0477598,0.106669 -0.106669,0.106669l-1.074 0c-0.0589094,0 -0.106669,-0.0477598 -0.106669,-0.106669l0 -1.14191c0,-0.0589094 0.0477598,-0.106669 0.106669,-0.106669zm0.967335 0.213339l-0.860665 0 0 0.928571 0.860665 0 0 -0.928571z"/>
  <rect class="fil1" width="6.82666" height="6.82666"/>
 </g>
</svg>
