<?xml version="1.0" encoding="UTF-8"?>
<!DOCTYPE svg PUBLIC "-//W3C//DTD SVG 1.1//EN" "http://www.w3.org/Graphics/SVG/1.1/DTD/svg11.dtd">
<!-- Creator: CorelDRAW -->
<svg xmlns="http://www.w3.org/2000/svg" xml:space="preserve" width="6.82666in" height="6.82666in" style="shape-rendering:geometricPrecision; text-rendering:geometricPrecision; image-rendering:optimizeQuality; fill-rule:evenodd; clip-rule:evenodd"
viewBox="0 0 6.82666 6.82666"
 xmlns:xlink="http://www.w3.org/1999/xlink">
 <defs>
  <style type="text/css">
   <![CDATA[
    .fil1 {fill:none}
    .fil0 {fill:#212121;fill-rule:nonzero}
   ]]>
  </style>
 </defs>
 <g id="Layer_x0020_1">
  <metadata id="CorelCorpID_0Corel-Layer"/>
  <path class="fil0" d="M2.33662 3.00417l2.20863 0c0.0375236,0 0.0705157,0.0193819 0.0895315,0.0486772l1.20896 1.55257 -0.083752 0.0654173 0.0841614 -0.0655354c0.0151772,0.0194961 0.0225197,0.0426024 0.0225039,0.0655354l3.93701e-006 0 0 0.000401575 0 0.715429c0,0.0589094 -0.0477598,0.106669 -0.106669,0.106669l-4.69333 0c-0.0589094,0 -0.106669,-0.0477598 -0.106669,-0.106669l0 -0.715831c0,-0.0285748 0.0112441,-0.0545276 0.0295394,-0.0736772l1.26458 -1.55341 0.0825 0.0670827 -0.0827205 -0.0673425c0.0210669,-0.025878 0.0517598,-0.0392992 0.0827205,-0.0393189l0 -7.87402e-006zm2.157 0.213339l-2.10673 0 -1.21356 1.49072 0 0.571768 4.47999 0 0 -0.573173 -1.1597 -1.48932z"/>
  <path class="fil0" d="M2.82666 2.71842c0,-0.0589094 -0.0477598,-0.106669 -0.106669,-0.106669 -0.0589094,0 -0.106669,0.0477598 -0.106669,0.106669l0 0.321583c0,0.0589094 0.0477598,0.106669 0.106669,0.106669 0.0589094,0 0.106669,-0.0477598 0.106669,-0.106669l0 -0.321583z"/>
  <path class="fil0" d="M4.21333 2.71842c0,-0.0589094 -0.0477598,-0.106669 -0.106669,-0.106669 -0.0589094,0 -0.106669,0.0477598 -0.106669,0.106669l0 0.321583c0,0.0589094 0.0477598,0.106669 0.106669,0.106669 0.0589094,0 0.106669,-0.0477598 0.106669,-0.106669l0 -0.321583z"/>
  <path class="fil0" d="M0.844917 2.7744c-9.44882e-005,-0.0300039 -0.00133071,-0.0744685 -0.00275591,-0.125772 -0.00224409,-0.0806693 -0.00495669,-0.178146 -0.00444094,-0.273154l1.9685e-005 -0.00355906c0.00201575,-0.370906 0.0023189,-0.425346 0.425031,-0.65048 0.32837,-0.174898 0.789232,-0.282083 1.27329,-0.33811 0.590469,-0.0683425 1.2196,-0.0614528 1.68228,-0.00892126 0.265906,0.030189 0.755843,0.115531 1.14363,0.256287 0.276087,0.100205 0.505539,0.232319 0.586551,0.401157 0.0519016,0.108134 0.0413031,0.417272 0.0342756,0.622106 -0.00194882,0.0568543 -0.00361417,0.105276 -0.00363386,0.134118 -1.1811e-005,0.0139724 -0.00105118,0.0271378 -0.00304724,0.0395039 -0.0122047,0.0755394 -0.0554134,0.131157 -0.118165,0.167189 -0.0513189,0.0294685 -0.116228,0.0441693 -0.185858,0.0441181 -0.276976,-0.00019685 -1.16075,-0.224539 -1.25957,-0.327669 -0.0514252,-0.0536614 -0.0797874,-0.121764 -0.0796969,-0.190236 1.1811e-005,-0.0183583 0.00104331,-0.0346339 0.00223622,-0.0536181 0.00303937,-0.0482756 0.0152165,-0.115862 0.0137126,-0.129106 -0.0904567,-0.041315 -0.215012,-0.0693189 -0.348697,-0.0880276 -0.275496,-0.0385512 -0.687173,-0.0436654 -0.977264,-0.0219882 -0.129949,0.00970472 -0.258154,0.0265 -0.375051,0.0539252 -0.0368858,0.00866142 -0.0668701,0.0165551 -0.0899331,0.0236693 -0.0214764,0.00662598 -0.0379134,0.0126969 -0.0492874,0.018189 -0.0351772,0.017 -0.0283976,0.066311 -0.0207677,0.121795 0.00479134,0.0348543 0.00977165,0.0710197 0.0102598,0.112587l0.000413386 -3.93701e-006c6.29921e-005,0.00550787 -0.000295276,0.0109213 -0.00104331,0.0162165 -0.0043189,0.0405748 -0.0173858,0.0785157 -0.0392087,0.113823 -0.0214488,0.034689 -0.0504567,0.0652992 -0.0870236,0.0918071 -0.077248,0.0559961 -0.129996,0.0655787 -0.212654,0.0805827 -0.0012874,0.000232283 0.000893701,-0.000153543 -0.0217795,0.00406693l-0.897898 0.167287 6.29921e-005 0.000338583c-0.0030748,0.000574803 -0.00614567,0.001 -0.00920079,0.00129921 -0.0251535,0.00388976 -0.0506535,0.0057874 -0.0760236,0.00576772 -0.0716929,-5.11811e-005 -0.137583,-0.0166614 -0.189197,-0.0478268 -0.0616654,-0.0372283 -0.103921,-0.0934606 -0.116354,-0.16652 -0.00213386,-0.0125394 -0.00322835,-0.0263307 -0.00321654,-0.0413898l0.106252 0 -0.106665 -0.000102362c3.93701e-006,-0.00315354 0.000149606,-0.00626772 0.00042126,-0.00935039zm0.209748 -0.131606c0.00101181,0.0364291 0.00192913,0.0694488 0.00241339,0.0977087 0.000429134,0.0254724 -0.0069685,0.0540472 0.0174016,0.0687559 0.0192283,0.0116102 0.0468228,0.0178031 0.0791969,0.0178268 0.0350472,1.9685e-005 0.0772835,-0.00974016 0.112098,-0.0162283l0.83263 -0.155126c0.00727953,-0.00135433 0.00709055,-0.00125197 0.0226063,-0.00406693 0.0525866,-0.00954331 0.0861457,-0.0156417 0.125157,-0.0439213 0.0145472,-0.0105433 0.0249449,-0.020874 0.031189,-0.0309724 0.0043622,-0.00705906 0.0070315,-0.0149567 0.00799606,-0.0236693 -0.000893701,-0.0242677 -0.00472441,-0.0520709 -0.00841732,-0.0789528 -0.0187441,-0.136319 -0.0354055,-0.257461 0.139098,-0.341795 0.0205512,-0.00992913 0.0469921,-0.0198858 0.0792874,-0.0298504 0.0307087,-0.00947244 0.0654213,-0.0187598 0.104106,-0.0278425 0.128508,-0.0301496 0.267591,-0.0484724 0.407547,-0.0589252 0.299461,-0.022374 0.741,-0.0156969 1.02226,0.0236575 0.157685,0.0220669 0.307555,0.0570669 0.420677,0.111252 0.00809843,0.00322441 0.0159291,0.00749606 0.0233031,0.0128543l-9.05512e-005 0.000125984c0.0902559,0.0656811 0.0806181,0.218854 0.0744331,0.317067 -0.00119685,0.019063 -0.00223622,0.0354803 -0.00223622,0.0402874 -1.5748e-005,0.013626 0.0072874,0.0289213 0.0205236,0.0427323 0.0348346,0.0363425 0.106173,0.0443622 0.152646,0.0548268 0.24776,0.0557795 0.721799,0.20772 0.953598,0.207843 0.032626,2.3622e-005 0.0606929,-0.00551575 0.0800236,-0.0166142 0.00790551,-0.00453937 0.0130827,-0.00983071 0.014,-0.0155197 0.000354331,-0.00220079 0.000543307,-0.00427559 0.000543307,-0.00617323 2.3622e-005,-0.0356693 0.00168898,-0.0840118 0.00363386,-0.140787 0.00632283,-0.184402 0.0158701,-0.462701 -0.0134409,-0.523768 -0.0530079,-0.110476 -0.23837,-0.209709 -0.467386,-0.292827 -0.369122,-0.13398 -0.838902,-0.215606 -1.09446,-0.244618 -0.448992,-0.0509764 -1.06024,-0.0575748 -1.63478,0.00892126 -0.460961,0.0533543 -0.895579,0.153157 -1.19746,0.313945 -0.310902,0.165583 -0.311114,0.203756 -0.312528,0.463811l-1.9685e-005 0.00355906c-0.000488189,0.0894331 0.00220866,0.186307 0.00444094,0.266484zm1.44274 -0.0681772c-0.00610236,0.043252 -0.038189,0.0782874 -0.0801024,0.0885709"/>
  <polygon class="fil0" points="2.66002,3.41554 2.87335,3.41554 2.98002,3.41554 2.98002,3.50087 2.98002,3.67154 2.98002,3.75687 2.87335,3.75687 2.66002,3.75687 2.55335,3.75687 2.55335,3.67154 2.55335,3.50087 2.55335,3.41554 "/>
  <polygon class="fil0" points="3.30003,3.41554 3.51336,3.41554 3.62003,3.41554 3.62003,3.50087 3.62003,3.67154 3.62003,3.75687 3.51336,3.75687 3.30003,3.75687 3.19336,3.75687 3.19336,3.67154 3.19336,3.50087 3.19336,3.41554 "/>
  <polygon class="fil0" points="3.94002,3.41554 4.15335,3.41554 4.26002,3.41554 4.26002,3.50087 4.26002,3.67154 4.26002,3.75687 4.15335,3.75687 3.94002,3.75687 3.83335,3.75687 3.83335,3.67154 3.83335,3.50087 3.83335,3.41554 "/>
  <polygon class="fil0" points="2.66002,3.92753 2.87335,3.92753 2.98002,3.92753 2.98002,4.01287 2.98002,4.18353 2.98002,4.26887 2.87335,4.26887 2.66002,4.26887 2.55335,4.26887 2.55335,4.18353 2.55335,4.01287 2.55335,3.92753 "/>
  <polygon class="fil0" points="3.30003,3.92753 3.51336,3.92753 3.62003,3.92753 3.62003,4.01287 3.62003,4.18353 3.62003,4.26887 3.51336,4.26887 3.30003,4.26887 3.19336,4.26887 3.19336,4.18353 3.19336,4.01287 3.19336,3.92753 "/>
  <polygon class="fil0" points="3.94002,3.92753 4.15335,3.92753 4.26002,3.92753 4.26002,4.01287 4.26002,4.18353 4.26002,4.26887 4.15335,4.26887 3.94002,4.26887 3.83335,4.26887 3.83335,4.18353 3.83335,4.01287 3.83335,3.92753 "/>
  <path class="fil0" d="M1.17333 4.47998c-0.0589094,0 -0.106669,0.0477598 -0.106669,0.106669 0,0.0589094 0.0477598,0.106669 0.106669,0.106669l4.48 0c0.0589094,0 0.106669,-0.0477598 0.106669,-0.106669 0,-0.0589094 -0.0477598,-0.106669 -0.106669,-0.106669l-4.48 0z"/>
  <rect class="fil1" width="6.82666" height="6.82666"/>
 </g>
</svg>
