<?xml version="1.0" ?><!DOCTYPE svg  PUBLIC '-//W3C//DTD SVG 1.1//EN'  'http://www.w3.org/Graphics/SVG/1.1/DTD/svg11.dtd'><svg enable-background="new 0 0 64 64" height="64px" id="Layer_1" version="1.1" viewBox="0 0 64 64" width="64px" xml:space="preserve" xmlns="http://www.w3.org/2000/svg" xmlns:xlink="http://www.w3.org/1999/xlink"><g><path d="   M5,13.8v16.9c0,1.1,0.9,2,2,2h16c1.1,0,2-0.9,2-2V13.8H5z" fill="none" stroke="#4D4D4D" stroke-linecap="round" stroke-linejoin="round" stroke-miterlimit="10" stroke-width="2"/><path d="   M59,47.7c0,1.1-0.9,2-2,2H41c-1.1,0-2-0.9-2-2v-10c0-1.1,0.9-2,2-2h16c1.1,0,2,0.9,2,2V47.7z" fill="none" stroke="#4D4D4D" stroke-linecap="round" stroke-linejoin="round" stroke-miterlimit="10" stroke-width="2"/><path d="   M15,32.7v16.6c0,4.4,3.6,8,8,8h2c4.4,0,8-3.6,8-8V26.7c0-4.4,3.6-8,8-8l0,0c4.4,0,8,3.6,8,8s0,8,0,8" fill="none" stroke="#4D4D4D" stroke-linecap="round" stroke-linejoin="round" stroke-miterlimit="10" stroke-width="2"/><rect fill="none" height="7.1" stroke="#4D4D4D" stroke-linecap="round" stroke-linejoin="round" stroke-miterlimit="10" stroke-width="2" width="15" x="7.5" y="6.7"/><rect fill="none" height="3.6" stroke="#4D4D4D" stroke-linecap="round" stroke-linejoin="round" stroke-miterlimit="10" stroke-width="2" width="15" x="41.5" y="49.7"/><line fill="none" stroke="#4D4D4D" stroke-linecap="round" stroke-linejoin="round" stroke-miterlimit="10" stroke-width="2" x1="21.3" x2="21.3" y1="17.7" y2="28.2"/><line fill="none" stroke="#4D4D4D" stroke-linecap="round" stroke-linejoin="round" stroke-miterlimit="10" stroke-width="2" x1="55.7" x2="55.7" y1="38.9" y2="45.7"/></g></svg>