<?xml version="1.0" ?><!DOCTYPE svg  PUBLIC '-//W3C//DTD SVG 1.1//EN'  'http://www.w3.org/Graphics/SVG/1.1/DTD/svg11.dtd'><svg enable-background="new 0 0 64 64" height="64px" id="Layer_1" version="1.1" viewBox="0 0 64 64" width="64px" xml:space="preserve" xmlns="http://www.w3.org/2000/svg" xmlns:xlink="http://www.w3.org/1999/xlink"><g><path d="   M50.7,49.1c0,1.2-0.9,2.2-2,2.2h-34c-1.1,0-2-1-2-2.2V15.4c0-1.2,0.9-2.2,2-2.2h34c1.1,0,2,1,2,2.2V49.1z" fill="none" stroke="#4D4D4D" stroke-linecap="round" stroke-linejoin="round" stroke-miterlimit="10" stroke-width="2"/><rect fill="none" height="30" stroke="#4D4D4D" stroke-linecap="round" stroke-linejoin="round" stroke-miterlimit="10" stroke-width="2" width="30" x="16.8" y="17.3"/><line fill="none" stroke="#4D4D4D" stroke-linecap="round" stroke-linejoin="round" stroke-miterlimit="10" stroke-width="2" x1="22.6" x2="22.6" y1="12.5" y2="5.5"/><line fill="none" stroke="#4D4D4D" stroke-linecap="round" stroke-linejoin="round" stroke-miterlimit="10" stroke-width="2" x1="27.6" x2="27.6" y1="12.5" y2="5.5"/><line fill="none" stroke="#4D4D4D" stroke-linecap="round" stroke-linejoin="round" stroke-miterlimit="10" stroke-width="2" x1="32.6" x2="32.6" y1="12.5" y2="5.5"/><line fill="none" stroke="#4D4D4D" stroke-linecap="round" stroke-linejoin="round" stroke-miterlimit="10" stroke-width="2" x1="37.6" x2="37.6" y1="12.5" y2="5.5"/><line fill="none" stroke="#4D4D4D" stroke-linecap="round" stroke-linejoin="round" stroke-miterlimit="10" stroke-width="2" x1="42.6" x2="42.6" y1="12.5" y2="5.5"/><line fill="none" stroke="#4D4D4D" stroke-linecap="round" stroke-linejoin="round" stroke-miterlimit="10" stroke-width="2" x1="47.6" x2="47.6" y1="12.5" y2="5.5"/><g><line fill="none" stroke="#4D4D4D" stroke-linecap="round" stroke-linejoin="round" stroke-miterlimit="10" stroke-width="2" x1="12.5" x2="5.5" y1="41.2" y2="41.2"/><line fill="none" stroke="#4D4D4D" stroke-linecap="round" stroke-linejoin="round" stroke-miterlimit="10" stroke-width="2" x1="12.5" x2="5.5" y1="36.2" y2="36.2"/><line fill="none" stroke="#4D4D4D" stroke-linecap="round" stroke-linejoin="round" stroke-miterlimit="10" stroke-width="2" x1="12.5" x2="5.5" y1="31.3" y2="31.3"/><line fill="none" stroke="#4D4D4D" stroke-linecap="round" stroke-linejoin="round" stroke-miterlimit="10" stroke-width="2" x1="12.5" x2="5.5" y1="26.3" y2="26.3"/><line fill="none" stroke="#4D4D4D" stroke-linecap="round" stroke-linejoin="round" stroke-miterlimit="10" stroke-width="2" x1="12.5" x2="5.5" y1="21.3" y2="21.3"/><line fill="none" stroke="#4D4D4D" stroke-linecap="round" stroke-linejoin="round" stroke-miterlimit="10" stroke-width="2" x1="12.5" x2="5.5" y1="16.3" y2="16.3"/></g><g><line fill="none" stroke="#4D4D4D" stroke-linecap="round" stroke-linejoin="round" stroke-miterlimit="10" stroke-width="2" x1="58.5" x2="51.5" y1="48.2" y2="48.2"/><line fill="none" stroke="#4D4D4D" stroke-linecap="round" stroke-linejoin="round" stroke-miterlimit="10" stroke-width="2" x1="58.5" x2="51.5" y1="43.2" y2="43.2"/><line fill="none" stroke="#4D4D4D" stroke-linecap="round" stroke-linejoin="round" stroke-miterlimit="10" stroke-width="2" x1="58.5" x2="51.5" y1="38.3" y2="38.3"/><line fill="none" stroke="#4D4D4D" stroke-linecap="round" stroke-linejoin="round" stroke-miterlimit="10" stroke-width="2" x1="58.5" x2="51.5" y1="33.3" y2="33.3"/><line fill="none" stroke="#4D4D4D" stroke-linecap="round" stroke-linejoin="round" stroke-miterlimit="10" stroke-width="2" x1="58.5" x2="51.5" y1="28.3" y2="28.3"/><line fill="none" stroke="#4D4D4D" stroke-linecap="round" stroke-linejoin="round" stroke-miterlimit="10" stroke-width="2" x1="58.5" x2="51.5" y1="23.3" y2="23.3"/></g><line fill="none" stroke="#4D4D4D" stroke-linecap="round" stroke-linejoin="round" stroke-miterlimit="10" stroke-width="2" x1="15.6" x2="15.6" y1="51.5" y2="58.5"/><line fill="none" stroke="#4D4D4D" stroke-linecap="round" stroke-linejoin="round" stroke-miterlimit="10" stroke-width="2" x1="20.6" x2="20.6" y1="51.5" y2="58.5"/><line fill="none" stroke="#4D4D4D" stroke-linecap="round" stroke-linejoin="round" stroke-miterlimit="10" stroke-width="2" x1="25.6" x2="25.6" y1="51.5" y2="58.5"/><line fill="none" stroke="#4D4D4D" stroke-linecap="round" stroke-linejoin="round" stroke-miterlimit="10" stroke-width="2" x1="30.6" x2="30.6" y1="51.5" y2="58.5"/><line fill="none" stroke="#4D4D4D" stroke-linecap="round" stroke-linejoin="round" stroke-miterlimit="10" stroke-width="2" x1="35.6" x2="35.6" y1="51.5" y2="58.5"/><line fill="none" stroke="#4D4D4D" stroke-linecap="round" stroke-linejoin="round" stroke-miterlimit="10" stroke-width="2" x1="40.6" x2="40.6" y1="51.5" y2="58.5"/><line fill="none" stroke="#4D4D4D" stroke-linecap="round" stroke-linejoin="round" stroke-miterlimit="10" stroke-width="2" x1="41.6" x2="41.6" y1="40.4" y2="23"/></g></svg>