<?xml version="1.0" encoding="utf-8"?>
<!-- Generator: Adobe Illustrator 19.0.1, SVG Export Plug-In . SVG Version: 6.00 Build 0)  -->
<svg version="1.1" id="security_1_" xmlns="http://www.w3.org/2000/svg" xmlns:xlink="http://www.w3.org/1999/xlink" x="0px"
	 y="0px" viewBox="0 0 128 128" style="enable-background:new 0 0 128 128;" xml:space="preserve">
<g id="row3_1_">
	<path id="bug_1_" style="display:none;fill:#0A0A0A;" d="M123.8,100.9L91.6,75.4c-3.2-2.8-7.5-3.5-11.2-2.3c4.9-8,7.2-17.3,6.4-26.9
		c-0.9-11.7-6.3-22.4-15.2-30C62.8,8.6,51.5,4.9,40,5.9c-11.6,1-22.1,6.4-29.6,15.4C-5.2,39.8-3,67.7,15.3,83.4
		C31.9,97.6,56.1,97.1,72.1,83c-0.5,4,0.9,8.1,4.1,10.9l32.1,25.6c5,4.3,12.6,3.7,16.9-1.4C129.4,112.9,128.8,105.2,123.8,100.9z
		 M69.4,72.2c-5.9,7.1-14.2,11.4-23.3,12.1c-9.1,0.8-17.9-2.1-24.9-8.1C6.8,63.9,5,42,17.2,27.4c12.2-14.6,33.8-16.4,48.2-4
		C79.8,35.7,81.6,57.6,69.4,72.2z M49.7,44.5c0,0,4.9-9.8,8.1-13.9c-0.2-1.4-0.2-1.2-0.8-2c-6,1.7-9.5,14.2-9.5,14.2l-2.3-3.7h-1.7
		l-2.6,3.4c0,0-2.6-9.6-8.6-13.9c-1.4,0.4-1.4,0.4-1.7,2c3.7,3,7.8,13.7,7.8,13.7l-1.7,2.2c0,0,0,0.2,0,0.3
		c-3.2,0.4-12.3-0.5-12.3-0.5v3.5l12.3,0.1c0,0,0,1.5,0,2.2c-1.4,1.4-2.8,2.8-4.2,4.2c-0.7,2.2-1.5,4.5-2.2,6.7l-5.3,2.8
		c-0.7,0.9,0,1.6,0.3,2.2c0.3,0.1,0.6,0.2,0.8,0.3c4.6-2.1,7-3.6,8.4-9.2h0.3c0.5,4.6,5.5,9.8,10.3,10c3.9-1.9,8-5.2,8.9-10h0.3
		c0.8,5.8,3.9,7.2,8.4,9.2c0.4-0.2,0.7-0.4,1.1-0.6c-0.1-1.3-0.2-1.5-0.6-2.2c-1.8-0.9-3.5-1.9-5.3-2.8c-0.5-1.9-0.9-3.7-1.4-5.6
		c-1.2-2.7-4.2-3-4.7-6.7c0.1-0.2,0.3-0.6,0.3-0.6l12.3-0.1v-3.5l-12.3,0.3L49.7,44.5z"/>
	<path id="walky_x5F_talky_1_" style="display:none;fill:#0A0A0A;" d="M63.1,35.5V8c0-4.4-3.6-8-8-8c-4.4,0-8,3.6-8,8v27.4H23.7c-5.7,0-10.3,4.7-10.3,10.6
		v71.4c0,5.8,4.6,10.6,10.3,10.6h36.2c5.7,0,10.3-4.7,10.3-10.6V46c0-4.7-2.9-8.6-7-10C63.2,34.6,63.1,35.5,63.1,35.5z M41.8,117.4
		c-7.1,0-12.9-5.9-12.9-13.2c0-7.3,5.8-13.2,12.9-13.2s12.9,5.9,12.9,13.2C54.7,111.5,48.9,117.4,41.8,117.4z M61.3,78.2H22.3v-7.1
		h39.1V78.2z M61.3,67.6H22.3v-7.1h39.1V67.6z M61.3,56.9H22.3v-7.1h39.1V56.9z M109.3,62V42.8c0-3-2.4-5.5-5.3-5.5
		c-2.9,0-5.3,2.5-5.3,5.5v19.1h-16c-3.9,0-7.1,3.3-7.1,7.3v49.6c0,4.1,3.2,7.3,7.1,7.3h24.9c3.9,0,7.1-3.3,7.1-7.3V69.3
		c0-3.4-2.3-6.3-5.3-7.1C109.3,60.7,109.3,62,109.3,62z M95.1,118.9c-4.9,0-8.9-4.1-8.9-9.2c0-5.1,4-9.2,8.9-9.2
		c4.9,0,8.9,4.1,8.9,9.2C104,114.8,100,118.9,95.1,118.9z M109.3,92.4H80.9v-5.3h28.4V92.4z M109.3,85.3H80.9V80h28.4V85.3z
		 M109.3,78.2H80.9v-5.3h28.4V78.2z"/>
	<path id="police_x5F_cap_1_" style="display:none;fill:#0A0A0A;" d="M121.9,46.4c0,0-43.3-24.5-59.4-24.5c-16.1,0-56.4,24.5-56.4,24.5L0,66.4L13.1,75v0.5
		h101.9V75l13.1-8.6L121.9,46.4z M77.4,49.2C78.5,65,65.9,66.3,63.2,67.8C60.6,66.3,48,65,49.1,49.2c0.2-3.3-1.8-4.1-1.8-4.1
		l1.2-3.3c3.7,2.1,10.8,2,14.8-1.6c4,3.6,11.1,3.7,14.8,1.6l1.2,3.3C79.2,45.1,77.2,45.9,77.4,49.2z M13.1,88.8
		c0,0,23.6,17.7,49.4,17.3c23.7-0.3,52.2-17.4,52.5-17.3V78.5H13.1V88.8z"/>
	<path id="stop_1_" style="display:none;fill:#0A0A0A;" d="M87.7,6.9H40.6L6.9,40.5v47l33.7,33.6l47.1-0.3l33.4-33.3v-47L87.7,6.9z M72.8,101.9
		c-24.1,7.2-31.6-9-31.6-12.5c0-15.7,0-48.3,0-48.3s1.1-2.8,4.7-2.8c1.3,0,3.4,1,3.4,3.5c0,6.2,0,17.3,0,17.3h2c0,0,0-17.4,0-26.3
		c0.6-1.4,1.5-3.5,4-3.5c1.6,0,4,0.8,4,4.1c-0.2,9.2,0.2,16.4,0,25.6c0.2,0.2,2,0,2,0c0,0.1,0-32.5,0-32.5s0.5-3.5,4-3.5
		c4.2,0,4,3.5,4,3.5v32.5h2v-27c0,0,0.6-3.5,4-3.5c4.3,0,4.7,3.5,4.7,3.5s0,27,0,40.1c0,2.1,1.2,3.5,2.7,2.1
		c4.3-4.1,6.6-8.7,11.4-12.4c3.3-2.5,5.4-1.2,6.1,1.4C101.1,66.2,85.7,98,72.8,101.9z M90.6,0H37.8L0,37.7v52.7L37.8,128l52.8-0.3
		L128,90.3V37.7L90.6,0z M123.4,88.5l-34.7,34.7l-49,0.3l-35.1-35V39.5l35.1-35h49l34.7,35V88.5z"/>
	<path id="passcode_1_" style="display:none;fill:#0A0A0A;" d="M52.4,30c-1.1-2.3-3.4-3.8-6.1-3.8c-3.8,0-6.9,3.1-6.9,6.9c0,1.3,0.8,3,1.4,4.1
		C40.8,29.6,49.7,27.3,52.4,30z M46.3,13.9c3.8,0,6.9-3.1,6.9-6.9c0-3.8-3.1-6.9-6.9-6.9c-3.8,0-6.9,3.1-6.9,6.9
		C39.4,10.8,42.5,13.9,46.3,13.9z M46.3,66.2c2.2,0,4.1-1,5.3-2.6l-5.1-11.2c-0.1,0-0.2,0-0.2,0c-3.8,0-6.9,3.1-6.9,6.9
		C39.4,63.1,42.5,66.2,46.3,66.2z M73.7,40c3.8,0,6.9-3.1,6.9-6.9c0-3.8-3.1-6.9-6.9-6.9c-3.8,0-6.9,3.1-6.9,6.9
		C66.9,36.9,69.9,40,73.7,40z M73.7,13.9c3.8,0,6.9-3.1,6.9-6.9c0-3.8-3.1-6.9-6.9-6.9c-3.8,0-6.9,3.1-6.9,6.9
		C66.9,10.8,69.9,13.9,73.7,13.9z M18.9,52.3c-3.8,0-6.9,3.1-6.9,6.9c0,3.8,3.1,6.9,6.9,6.9c3.8,0,6.9-3.1,6.9-6.9
		C25.7,55.5,22.6,52.3,18.9,52.3z M18.9,0C15.1,0,12,3.1,12,6.9c0,3.8,3.1,6.9,6.9,6.9c3.8,0,6.9-3.1,6.9-6.9
		C25.7,3.1,22.6,0,18.9,0z M18.9,26.2c-3.8,0-6.9,3.1-6.9,6.9c0,3.8,3.1,6.9,6.9,6.9c3.8,0,6.9-3.1,6.9-6.9
		C25.7,29.3,22.6,26.2,18.9,26.2z M105.8,59.4c0,0-1.3-8.9-7-7.5c-4,0.9-3.1,12.6-3.1,12.6s-0.3-1.8-1.8-11.4
		c-1.2-4.1-5.2-4.6-7.7-3.7c-3.9,1.3-4.3,11.7-4.3,11.7c0.1,0.1-4.4-12.4-4.4-12.4s-1.3-4.4-6.1-3.7c-5.6,0.8-4.7,5.3-4.7,5.3
		l1,11.3L55.1,35.9c0,0-2.9-5.6-7.5-5c-5.8,0.9-5,7.1-5,7.1s13.3,25.2,16,42.3c0.4,3.2-0.2,4.4-3.2,3.2c-7.2-3.3-10.7-10-17.8-14
		c-3.2-1.8-7.2-0.4-7.8,3c-0.6,3.4,10.5,18.9,24.2,31.5c6.2,5.6,31.5,23.8,31.5,23.8l30.5-13.4L105.8,59.4z"/>
</g>
<g id="row2_1_">
	<path id="computer_x5F_lock_1_" style="display:none;fill:#0A0A0A;" d="M64,50c-2.4,0-4.3,1.9-4.3,4.1v2.1h8.6c0,0,0-1.3,0-2.1C68.3,51.8,66.4,50,64,50z
		 M64,80.1c11.1,0,20.1-8.9,20.1-19.9s-9-19.9-20.1-19.9s-20.1,8.9-20.1,19.9S52.9,80.1,64,80.1z M55.4,58.2h2.1c0,0,0-0.7,0-4.1
		c0-3.4,2.9-6.2,6.4-6.2c3.6,0,6.4,2.8,6.4,6.2c0,0.7,0,4.1,0,4.1h2.1v12.4H55.4V58.2z M122.3,93.4h-5.7V32.2c0-4.9-4.1-9-9.1-9
		H20.6c-5,0-9.1,4-9.1,9v61.1H5.7C2.6,93.4,0,95.9,0,99c0,3.1,2.6,5.7,5.7,5.7h116.5c3.2,0,5.7-2.5,5.7-5.7
		C128,95.9,125.4,93.4,122.3,93.4z M110.8,89.6H17.2V29h93.6V89.6z"/>
	<path id="eye_1_" style="display:none;fill:#0A0A0A;" d="M63.1,29.7C29.3,29.7,0,64,0,64s29.3,34.3,63.1,34.3S128,64,128,64S96.9,29.7,63.1,29.7z
		 M63.1,90.9C33.4,90.9,11.1,64,11.1,64s22.2-26.9,51.9-26.9c0.2,0,0.4,0,0.6,0C49,37.3,37.1,49.3,37.1,64
		c0,14.7,11.9,26.7,26.6,26.9C63.5,90.9,63.3,90.9,63.1,90.9z M55,64c0-5,4-9,9-9c5,0,9,4,9,9c0,5-4,9-9,9C59,73,55,69,55,64z
		 M66.9,90.7c13.5-1.5,24-12.9,24-26.7c0-13.9-10.5-25.3-24-26.7C94.8,39.4,116.9,64,116.9,64S94.8,88.6,66.9,90.7z"/>
	<path id="wall_1_" style="display:none;fill:#0A0A0A;" d="M41.4,22.6H0v26.3h41.4V22.6z M77.2,22.6H43.3v26.3h33.9V22.6z M79.1,22.6v26.3H128V22.6H79.1z
		 M54.6,50.8H0v26.4h54.6V50.8z M56.5,77.2H96V50.8H56.5V77.2z M97.9,77.2H128V50.8H97.9V77.2z M0,105.4h41.4V79.1H0V105.4z
		 M43.3,105.4h54.6V79.1H43.3V105.4z M99.8,105.4H128V79.1H99.8V105.4z"/>
	<path id="handcuffs_1_" style="display:none;fill:#0A0A0A;" d="M126.5,62.9c-2.8-7.9-9.2-13.5-16.5-15.6c0.8-0.3,3-1.2,3-1.2l-3.8-8.1l-12.3,4.5
		c0.6-2.6-1-5.2-3.5-5.9l-9.5-2.4c-1.4-0.4-2.8-0.1-3.9,0.7c-0.6-0.5-1.2-0.9-2-1.1l-9.5-2.4c-1.8-0.5-3.6,0.2-4.8,1.5
		c-1.2-1.4-3.1-2.1-5.1-1.6l-9.4,2.7c-1.4,0.4-2.4,1.3-3,2.5c-1.2-0.9-2.7-1.3-4.2-0.9L32.4,38c-2.3,0.6-3.8,2.8-3.6,5.1l-10-3.6
		l-3.8,8c0,0,2.2,0.9,3,1.2c-7.3,2.1-13.7,7.7-16.5,15.6c-4,11.1,0.2,23.1,9.5,29c1.8-0.4,4.2-1.4,4.2-1.4s-1.2-3.2-1.9-5
		c-6-4.6-8.5-12.8-5.8-20.5c3.4-9.4,13.5-14.3,22.5-11c9.1,3.3,13.7,13.6,10.3,22.9C37.2,87.1,28.2,92,19.7,90
		c-0.6-0.2-1.9-0.6-1.9-0.6l0.4,3.6l-4.1,2c0,0,3.2,1.1,4,1.3c11.7,2.8,23.9-3.9,28.2-15.8c2.8-7.8,1.3-16.3-2.9-22.5
		c1.3,0.6,3.2,0.9,3.2,0.9l3.8-8l-11.9-4.3l5.9-1.6c1.4-0.4,2.5-1.3,3.1-2.5c1.2,0.9,2.8,1.3,4.3,0.9l9.4-2.7
		c0.9-0.3,1.7-0.8,2.3-1.4c0.6,0.7,1.5,1.3,2.5,1.6l9.5,2.4c1.4,0.4,2.8,0.1,3.9-0.7c0.6,0.5,1.2,0.9,2,1.1l7.1,1.8l-11,4l3.8,8.1
		c0,0,2.1-0.8,3.2-1.2c-4.2,6.3-5.7,15.1-2.9,22.9c4.3,12,16.6,18.7,28.2,15.9c0.8-0.2,4-1.3,4-1.3l-4.1-2l0.4-3.6
		c0,0-1.3,0.4-1.9,0.6c-8.5,2-17.5-2.9-20.6-11.6c-3.4-9.4,1.3-19.7,10.3-23c9.1-3.3,19.2,1.7,22.5,11.1c2.8,7.7,0.2,16-5.8,20.5
		c-0.7,1.8-1.9,5-1.9,5s2.4,1,4.2,1.4C126.3,86.1,130.5,74,126.5,62.9z M33.9,49.8l-1.4,2.6c-0.6,1.1-1.9,1.4-2.9,0.8
		c-1-0.6-1.4-2-0.8-3l1.4-2.6c0.6-1.1,1.9-1.4,2.9-0.8C34.1,47.4,34.5,48.7,33.9,49.8z M40.9,43l-4.1,1.1c-1.9,0.5-3.4,0.7-3.9-1.2
		c-0.5-1.9,1-2.4,2.9-2.9l4.1-1.1c1.9-0.5,3.4-0.7,3.9,1.2C44.3,42,42.8,42.5,40.9,43z M57.8,38.8l-4,1.1c-1.9,0.5-3.4,0.8-3.9-1.1
		c-0.5-1.9,0.9-2.5,2.8-3l4-1.1c1.9-0.5,3.4-0.8,3.9,1.1S59.6,38.2,57.8,38.8z M77.4,38.7c-0.5,1.9-2,1.7-3.9,1.2l-4.1-1
		c-1.9-0.5-3.4-1-2.9-2.9c0.5-1.9,2-1.7,3.9-1.2l4.1,1C76.4,36.2,77.9,36.8,77.4,38.7z M92.8,41.5c-0.5,1.9-2,1.7-3.9,1.2l-4.1-1
		c-1.9-0.5-3.4-1-2.9-2.9c0.5-1.9,2-1.7,3.9-1.2l4.1,1C91.8,39.1,93.3,39.6,92.8,41.5z M98.3,51.8c-1,0.6-2.3,0.2-2.9-0.8l-1.4-2.6
		c-0.6-1.1-0.2-2.4,0.8-3c1-0.6,2.3-0.2,2.9,0.8l1.4,2.6C99.7,49.8,99.4,51.2,98.3,51.8z"/>
	<path id="enforcement_1_" style="display:none;fill:#0A0A0A;" d="M117.7,86.9c-1.9,0-3.2,0.2-4.3,1.1L99,64.1L113.4,40c1.1,0.9,2.4,1.1,4.3,1.1
		c3,0,6.3-3.2,6.3-7.3c0-4.1-2.6-7.3-6.9-7.3c-4.5,0-8.4,3.7-8.4,7.3H80.8L67.2,13.3c1.9-0.9,4.1-3,4.1-6.7C71.3,3.2,68.1,0,64,0
		c-4.1,0-7.3,3.2-7.3,6.7c0,3.7,2.2,5.8,4.1,6.7L47.2,33.8H19.3c0-3.7-3.9-7.3-8.4-7.3c-4.3,0-6.9,3.2-6.9,7.3
		c0,4.1,3.2,7.3,6.3,7.3c1.9,0,3.2-0.2,4.3-1.1L29,64.1L14.6,88c-1.1-0.9-2.4-1.1-4.3-1.1c-3,0-6.3,3.2-6.3,7.3
		c0,4.1,2.6,7.5,6.9,7.5c4.5,0,8.4-3.9,8.4-7.5h27.8l13.6,20.4c-1.9,0.9-4.1,3-4.1,6.9c0,3.4,3.2,6.5,7.3,6.5c4.1,0,7.3-3,7.3-6.5
		c0-3.9-2.2-6-4.1-6.9l13.6-20.4h27.8c0,3.7,3.9,7.5,8.4,7.5c4.3,0,6.9-3.4,6.9-7.5C124,90.1,120.8,86.9,117.7,86.9z M64,90
		c-14.4,0-26-11.6-26-26s11.6-26,26-26c14.4,0,26,11.6,26,26S78.4,90,64,90z M64,44c-11,0-20,9-20,20s9,20,20,20c11,0,20-9,20-20
		S75,44,64,44z"/>
</g>
<g id="row1_1_">
	<path id="hooter_1_" style="display:none;fill:#0A0A0A;" d="M96.6,31.2l-3.9-2.3L79.1,52.4l3.9,2.3L96.6,31.2z M66.3,22.2h-4.5v27.1h4.5V22.2z M95.1,66.9
		l23.5-13.6l-2.3-3.9L92.9,63L95.1,66.9z M48.9,52.4L35.3,28.9l-3.9,2.3l13.6,23.5L48.9,52.4z M64,52.3c-18.7,0-33.9,15.2-33.9,33.9
		v19.6h67.8V86.2C97.9,67.5,82.7,52.3,64,52.3z M64.8,59.9c-14.1,0-25.6,11.1-25.6,25.6l-3-1.5c0-13.3,10.7-27.1,28.6-27.1
		C65.1,56.8,64.4,59.9,64.8,59.9z M100.9,77.9v4.5H128v-4.5H100.9z M35.1,63L11.7,49.4l-2.3,3.9l23.5,13.6L35.1,63z M0,82.4h27.1
		v-4.5H0V82.4z"/>
	<path id="lock_1_" style="display:none;fill:#0A0A0A;" d="M64,53.7c-16,0-28.9,12.9-28.9,28.9c0,16,12.9,28.9,28.9,28.9c16,0,28.9-12.9,28.9-28.9
		C92.9,66.6,80,53.7,64,53.7z M64,99.1c-9.1,0-16.5-7.4-16.5-16.5S54.9,66.1,64,66.1c9.1,0,16.5,7.4,16.5,16.5S73.1,99.1,64,99.1z
		 M95,49.4c0-4.9,0-18.4,0-18.4C95,13.9,81.1,0,64,0C46.9,0,33,13.9,33,31v16.5c0,0,0.1-0.1,0.1,1.7c-9,8.3-14.6,20.2-14.6,33.4
		c0,25.1,20.3,45.4,45.4,45.4c25.1,0,45.4-20.3,45.4-45.4C109.4,69.5,103.9,57.7,95,49.4z M64,12.4c9.1,0,16.5,7.2,16.5,16.1v8.7
		c0,0,0.2,1.7,0.2,3.2c-5.2-2-10.8-3.2-16.7-3.2c-5.8,0-11.3,1.1-16.4,3.1c0-3.2-0.1-11.7-0.1-11.7C47.5,19.6,54.9,12.4,64,12.4z
		 M64,119.7c-20.5,0-37.2-16.6-37.2-37.2S43.5,45.4,64,45.4c20.5,0,37.2,16.6,37.2,37.2S84.5,119.7,64,119.7z M64,72.3
		c-5.7,0-10.3,4.6-10.3,10.3S58.3,92.9,64,92.9c5.7,0,10.3-4.6,10.3-10.3S69.7,72.3,64,72.3z"/>
	<path id="key" style="display:none;fill-rule:evenodd;clip-rule:evenodd;fill:#0A0A0A;" d="M128,61.2l-6.5-24.3l-78,20.9c-4.9-8.9-15.6-13.6-26.1-10.8C5,50.4-2.5,62.7,0.7,74.6
		c3.2,11.9,15.8,18.9,28.1,15.6C39.4,87.5,46.3,78,46.1,67.9L94.1,55l3.8,14.2l7.4-2l-2.9-11l4-1.1l3,11l7.4-2l-3-11l4-1.1l2.9,11
		L128,61.2z M27.1,83.7C18.5,86,9.7,81.2,7.5,72.8C5.3,64.5,10.4,55.9,19,53.6c8.6-2.3,17.4,2.6,19.6,10.9
		C40.9,72.8,35.7,81.4,27.1,83.7z"/>
	<path id="shield_1_" style="display:none;fill:#0A0A0A;" d="M116.8,20.5c0,0-14-0.1-28.4-6.1C69.2,6.3,64,0,64,0s-5.2,6.3-24.4,14.2
		c-14.5,6-28.4,6.1-28.4,6.1s-1.9,40,12.2,69.1C35.5,114.4,64,128,64,128s28.5-12.8,40.6-38C118.7,60.7,116.8,20.5,116.8,20.5z
		 M96.5,85.9C86.9,106.3,64,117.8,64,117.8s-22.9-12.2-32.5-32.5C18.8,58.5,19.3,28.4,19.3,28.4s11.8-1.1,24.1-6.2
		C59.6,15.5,64,10.2,64,10.2l0,0.1c0,0,4.4,5.4,20.6,12.2c12.2,5.1,24,6.2,24,6.2S109.2,58.9,96.5,85.9z M38.3,88.1
		c9.9,14.1,25.8,23.7,25.8,23.7S84.9,100.3,93.7,82c4.7-9.7,6.9-21,8-30.5c-0.1,0-1,0.4-3.8,2C85.4,60.8,41.6,86.3,38.3,88.1z
		 M81.8,26.7c-14-5.8-17.8-10.5-17.8-10.5s-3.8,4.6-17.8,10.4c-10.6,4.4-20.8,4.5-20.8,4.5s-1.2,25.1,6.9,45.7
		c38.8-21.6,70.3-40.3,70.3-40.3l-0.1-5.4C102.6,31.2,92.4,31.1,81.8,26.7z"/>
	<g id="cctv">
		<path id="Path_4_" class="st2" d="M10.6,98.7v10.7h3.6V98.7H10.6z M10.6,63.1v10.6h3.6V63.1H10.6z M16,16.9v30.2h88.4l20-30.2H16z
			 M26.6,41.8c-2,0-3.6-1.4-3.6-3V25.3c0-1.7,1.6-3.1,3.6-3.1V41.8z M33.8,41.8c-2,0-3.6-1.4-3.6-3V25.3c0-1.7,1.6-3.1,3.6-3.1V41.8
			z M40.9,41.8c-2,0-3.6-1.4-3.6-3V25.3c0-1.7,1.6-3.1,3.6-3.1V41.8z M48,41.8c-1.9,0-3.5-1.4-3.5-3V25.3c0-1.7,1.6-3.1,3.5-3.1
			V41.8z M125.9,29.3h-1.1c-1.2,0-2.2,0.8-2.2,1.8v12.4c0,1,1,1.8,2.2,1.8h1.1c1.2,0,2.1-0.8,2.1-1.8V31.1
			C128,30.1,127,29.3,125.9,29.3z M108.5,45.3h12.4V27.5L108.5,45.3z M26.7,48.9v8.9h69.8l6.7-8.9H26.7z"/>
		<path id="Path_1_" class="st2" d="M64,64.9v14.3c3,0.4,5.3,3,5.3,6.1c0,3.4-2.8,6.2-6.2,6.2H8.9v19.6H0V61.3h8.9v17.8h49.8V64.9
			H46.2v-5.4h28.4v5.4H64z"/>
	</g>
</g>
</svg>
