<svg xmlns="http://www.w3.org/2000/svg" xmlns:xlink="http://www.w3.org/1999/xlink" viewBox="0 0 272.86 180.17"><title>camera</title><g id="Calque_2" data-name="Calque 2"><g id="All_work" data-name="All  work"><path class="cls-1" d="M265.61,86.32a7.24,7.24,0,0,0-7.24,7.24V111h-24.5L215,92.08l14.27-3.83a7.24,7.24,0,0,0,5.12-8.87l-19.82-74A7.25,7.25,0,0,0,205.64.25L11.19,52.35A7.24,7.24,0,0,0,7.5,64L18.24,76.9,5.37,80.35A7.24,7.24,0,0,0,.25,89.22l6.61,24.67a7.23,7.23,0,0,0,7,5.37,7.63,7.63,0,0,0,1.88-.24l30.69-8.23,15,18.06A7.23,7.23,0,0,0,67,131.46a7.5,7.5,0,0,0,1.87-.24l96.39-25.83,48,48a7.28,7.28,0,0,0,5.12,2.12h40v17.43a7.25,7.25,0,0,0,14.49,0V93.56A7.24,7.24,0,0,0,265.61,86.32ZM19,103.14,16.12,92.47l12.32-3.3,7.78,9.35ZM69.61,116,43.85,85,190.34,45.79a7.25,7.25,0,0,0-3.75-14l-152.94,41-7.77-9.35,176.51-47.3,16.08,60Zm188.76,25h-37l-39.94-39.95,17.37-4.65,27,27a7.26,7.26,0,0,0,5.13,2.12h27.5Z"/></g></g></svg>