<?xml version="1.0" encoding="utf-8"?>
<!-- Generator: Adobe Illustrator 19.0.0, SVG Export Plug-In . SVG Version: 6.00 Build 0)  -->
<svg version="1.1" id="Layer_1" xmlns="http://www.w3.org/2000/svg" xmlns:xlink="http://www.w3.org/1999/xlink" x="0px" y="0px"
	 viewBox="0 0 489.6 133.6" style="enable-background:new 0 0 489.6 133.6;" xml:space="preserve">
<style type="text/css">
	.st0{fill-rule:evenodd;clip-rule:evenodd;fill:#F431BD;}
</style>
<g>
	<path class="st0" d="M483.2,75.4h-12.4l6.8-4.9c5.6-3.6,4-6.8,1.7-10.1l-31.8,22.8h41.7C490.3,79.3,489.4,75.6,483.2,75.4z"/>
	<path class="st0" d="M477.7,58.1l-2.4-3.4c-1.1-1.5-3.2-1.9-4.7-0.8l-14.5,10.4l5.2-18.9c0.9-3.3-1.5-6.5-4.9-6.5l-11.8,42.9
		L477.7,58.1z"/>
	<path class="st0" d="M452.6,38.3h-5.2c-1.1,0-2.1,0.8-2.4,1.9l-6.3,23l-8-11.3c-0.8-1.1-2.2-1.3-3.3-0.6l-3.8,2.7l17.8,26.9
		L452.6,38.3z"/>
	<path class="st0" d="M8.1,110.7H4.8L2.6,121H4l0.9-4.3h1.8l1.6,4.3h1.5l-1.7-4.4c1.6-0.4,2.8-1.6,2.8-3.3
		C11,111.8,9.9,110.7,8.1,110.7z M7.2,115.5h-2l0.8-3.5h2c1.1,0,1.6,0.6,1.6,1.5C9.5,114.7,8.6,115.5,7.2,115.5z"/>
	<polygon class="st0" points="17.7,108.2 15.9,109.9 17.4,109.9 19.6,108.2 	"/>
	<polygon class="st0" points="19.8,112 20,110.7 13.8,110.7 11.6,121 17.8,121 18.1,119.7 13.3,119.7 14,116.5 18.3,116.5 
		18.6,115.2 14.3,115.2 14.9,112 	"/>
	<path class="st0" d="M24.6,111.7c1.9,0,2.2,1.4,2.2,1.9l1.4-0.3c0-1.2-0.9-2.9-3.4-2.9c-2,0-3.5,1.4-3.5,3.1c0,1.3,0.7,2.2,1.9,2.7
		l1.4,0.6c0.8,0.4,1.1,0.9,1.1,1.5c0,1-0.8,1.6-2,1.6c-1.7,0-2.3-1.2-2.3-2.3c0-0.1,0-0.2,0-0.3l-1.5,0.2c0,0.1,0,0.2,0,0.2
		c0,1.6,1.1,3.5,3.8,3.5c2.1,0,3.5-1.5,3.5-3.1c0-1.1-0.6-2.1-2-2.7l-1.4-0.7c-0.6-0.3-1-0.7-1-1.4
		C22.7,112.4,23.5,111.7,24.6,111.7z"/>
	<polygon class="st0" points="31.8,112 36.6,112 36.8,110.7 30.6,110.7 28.4,121 34.6,121 34.9,119.7 30.1,119.7 30.8,116.5 
		35.1,116.5 35.4,115.2 31.1,115.2 	"/>
	<path class="st0" d="M41.8,110.7L35.6,121h1.6l1.7-2.9h4.4l0.5,2.9h1.5l-1.8-10.4H41.8z M39.7,116.8l2.6-4.5l0.7,4.5H39.7z"/>
	<path class="st0" d="M52.4,117.8c-0.3,1.4-1.2,2.2-2.4,2.2c-1.4,0-2.1-0.7-2.1-1.9c0-0.2,0-0.5,0.1-0.8l1.3-6.6H48l-1.4,6.4
		c-0.1,0.4-0.1,0.7-0.1,1.1c0,2,1.3,3.1,3.4,3.1c2,0,3.5-1.2,3.9-3.4l1.5-7.2h-1.5L52.4,117.8z"/>
	<path class="st0" d="M64.5,110.7h-2.8L59.5,121h3.8c2.8,0,5.6-2.1,5.6-6.2C68.9,112.3,67.2,110.7,64.5,110.7z M63.3,119.8h-2.1
		l1.7-7.8h1.4c1.9,0,3.2,1,3.2,3C67.5,118.1,65.3,119.8,63.3,119.8z"/>
	<polygon class="st0" points="69.6,121 75.9,121 76.2,119.7 71.4,119.7 72,116.5 76.4,116.5 76.7,115.2 72.3,115.2 73,112 77.8,112 
		78.1,110.7 71.8,110.7 	"/>
	<path class="st0" d="M90.1,117.6c-0.7,1.6-1.9,2.3-3.3,2.3c-1.9,0-3.1-1.3-3.1-3.4c0-2.5,1.4-4.8,4-4.8c1.7,0,2.7,1.1,3,2.4
		l1.4-0.4c-0.4-1.8-1.7-3.3-4.2-3.3c-2.8,0-5.6,2.1-5.6,6.2c0,2.7,1.8,4.6,4.4,4.6c2.2,0,3.9-1.2,4.7-3.1L90.1,117.6z"/>
	<path class="st0" d="M97.1,110.7L90.9,121h1.6l1.7-2.9h4.4L99,121h1.5l-1.8-10.4H97.1z M95,116.8l2.6-4.5l0.7,4.5H95z"/>
	<path class="st0" d="M106.9,110.7h-3.1l-2.2,10.4h3.9c2.1,0,3.5-1.4,3.5-3.2c0-1-0.6-1.8-1.5-2.1c1.3-0.4,2.1-1.5,2.1-2.8
		C109.6,111.7,108.7,110.7,106.9,110.7z M107.6,117.8c0,1.1-1,2-2.3,2h-2l0.7-3.4h1.9C107.1,116.4,107.6,117,107.6,117.8z
		 M106,115.2h-1.7l0.7-3.3h1.6c1,0,1.6,0.5,1.6,1.3C108.2,114.4,107.3,115.2,106,115.2z"/>
	<polygon class="st0" points="114.1,110.7 112.6,110.7 110.4,121 116.6,121 116.9,119.7 112.2,119.7 	"/>
	<path class="st0" d="M123.3,110.7l-6.2,10.4h1.6l1.7-2.9h4.4l0.5,2.9h1.5l-1.8-10.4H123.3z M121.2,116.8l2.6-4.5l0.7,4.5H121.2z"/>
	<path class="st0" d="M133.2,111.8c1.7,0,2.7,1.1,3,2.4l1.4-0.4c-0.4-1.8-1.7-3.3-4.2-3.3c-2.8,0-5.6,2.1-5.6,6.2
		c0,2.9,2,4.6,4.4,4.6c1.4,0,2.4-0.5,3.1-1.4l-0.1,1.2h1.1l1.1-5.1h-5l-0.3,1.3h3.6c-0.4,1.7-1.9,2.7-3.4,2.7
		c-1.9,0-3.1-1.3-3.1-3.4C129.2,114,130.7,111.8,133.2,111.8z"/>
	<polygon class="st0" points="138.3,121 144.6,121 144.8,119.7 140,119.7 140.7,116.5 145.1,116.5 145.4,115.2 141,115.2 141.7,112 
		146.5,112 146.8,110.7 140.5,110.7 	"/>
	<polygon class="st0" points="150.6,121 152.1,121 154.3,110.7 152.8,110.7 	"/>
	<polygon class="st0" points="161.9,118.8 158.6,110.7 156.9,110.7 154.7,121 156.1,121 157.9,112.6 161.4,121 162.9,121 
		165.1,110.7 163.6,110.7 	"/>
	<polygon class="st0" points="173.7,112 174,110.7 167.7,110.7 165.5,121 167,121 167.9,116.7 172.2,116.7 172.5,115.3 168.2,115.3 
		168.9,112 	"/>
	<path class="st0" d="M179.3,110.4c-2.7,0-5.5,2.2-5.5,6.3c0,2.7,1.8,4.5,4.5,4.5c2.7,0,5.5-2.1,5.5-6.3
		C183.8,112.2,182.1,110.4,179.3,110.4z M178.4,119.9c-1.8,0-3.1-1.2-3.1-3.4c0-2.5,1.4-4.8,4-4.8c1.8,0,3.1,1.2,3.1,3.4
		C182.4,117.6,180.9,119.9,178.4,119.9z"/>
	<path class="st0" d="M190.1,110.7h-3.4l-2.2,10.4h1.4l0.9-4.3h1.8l1.6,4.3h1.5l-1.7-4.4c1.6-0.4,2.8-1.6,2.8-3.3
		C193,111.8,191.9,110.7,190.1,110.7z M189.2,115.5h-2l0.8-3.5h2c1.1,0,1.6,0.6,1.6,1.5C191.5,114.7,190.6,115.5,189.2,115.5z"/>
	<polygon class="st0" points="204.8,110.7 199.5,119 197.5,110.7 195.8,110.7 193.6,121 195,121 196.7,113.1 198.6,121 199.7,121 
		204.8,113.1 203.1,121 204.5,121 206.7,110.7 	"/>
	<path class="st0" d="M212,110.7l-6.2,10.4h1.6l1.7-2.9h4.4l0.5,2.9h1.5l-1.8-10.4H212z M209.9,116.8l2.6-4.5l0.7,4.5H209.9z"/>
	<polygon class="st0" points="224.5,110.7 216.4,110.7 216.2,112 219.5,112 217.6,121 219,121 221,112 224.2,112 	"/>
	<polygon class="st0" points="223.7,121 225.2,121 227.4,110.7 225.9,110.7 	"/>
	<path class="st0" d="M233.6,110.4c-2.7,0-5.5,2.2-5.5,6.3c0,2.7,1.8,4.5,4.5,4.5c0.9,0,1.7-0.2,2.5-0.6l1.1,1.5l1.1-0.7l-1.1-1.5
		c1.2-1,2-2.7,2-4.9C238.1,112.2,236.4,110.4,233.6,110.4z M235.3,118.8l-1.6-2.2l-1.1,0.7l1.6,2.2c-0.5,0.2-1,0.4-1.6,0.4
		c-1.8,0-3.1-1.2-3.1-3.4c0-2.5,1.4-4.8,4-4.8c1.8,0,3.1,1.2,3.1,3.4C236.7,116.5,236.2,117.9,235.3,118.8z"/>
	<path class="st0" d="M245.4,117.8c-0.3,1.4-1.2,2.2-2.4,2.2c-1.4,0-2.1-0.7-2.1-1.9c0-0.2,0-0.5,0.1-0.8l1.3-6.6H241l-1.4,6.4
		c-0.1,0.4-0.1,0.7-0.1,1.1c0,2,1.3,3.1,3.4,3.1c2,0,3.5-1.2,3.9-3.4l1.5-7.2h-1.5L245.4,117.8z"/>
	<polygon class="st0" points="248.7,121 254.9,121 255.2,119.7 250.4,119.7 251.1,116.5 255.4,116.5 255.7,115.2 251.4,115.2 
		252,112 256.9,112 257.1,110.7 250.9,110.7 	"/>
	<path class="st0" d="M265,115.6l0.5-0.3c0.9-0.5,2-1.2,2-2.6c0-1.2-0.9-2.3-2.5-2.3c-1.4,0-2.8,0.9-2.8,2.6c0,0.8,0.4,1.4,0.7,1.9
		l0.2,0.3l-0.3,0.1c-1.4,0.7-2.4,1.6-2.4,3.2c0,1.4,1.1,2.6,2.8,2.6c1.2,0,2-0.5,2.9-1.3l0.1-0.1l0.9,1.3h1.7l-1.5-2.2l1.9-1.6
		l0.4-2l-3,2.6L265,115.6z M264.9,111.7c0.7,0,1.2,0.4,1.2,1c0,0.6-0.2,1.1-1.2,1.6l-0.5,0.3l-0.4-0.5c-0.2-0.3-0.4-0.7-0.4-1.1
		C263.5,112,264.4,111.7,264.9,111.7z M265.4,118.8c-0.6,0.5-1.4,1-2.1,1c-0.8,0-1.5-0.5-1.5-1.4c0-0.9,0.4-1.4,1.3-1.9l0.7-0.4
		L265.4,118.8L265.4,118.8z"/>
	<polygon class="st0" points="281.7,112 282,110.7 275.8,110.7 273.6,121 275,121 275.9,116.7 280.3,116.7 280.6,115.3 276.2,115.3 
		276.9,112 	"/>
	<polygon class="st0" points="281.8,121 283.3,121 285.5,110.7 284,110.7 	"/>
	<path class="st0" d="M291.2,110.7h-3.1l-2.2,10.4h3.9c2.1,0,3.5-1.4,3.5-3.2c0-1-0.6-1.8-1.5-2.1c1.3-0.4,2.1-1.5,2.1-2.8
		C293.9,111.7,293,110.7,291.2,110.7z M291.9,117.8c0,1.1-1,2-2.3,2h-2l0.7-3.4h1.9C291.4,116.4,291.9,117,291.9,117.8z
		 M290.3,115.2h-1.7l0.7-3.3h1.6c1,0,1.6,0.5,1.6,1.3C292.5,114.4,291.6,115.2,290.3,115.2z"/>
	<path class="st0" d="M300.3,110.7H297l-2.2,10.4h1.4l0.9-4.3h1.8l1.6,4.3h1.5l-1.7-4.4c1.6-0.4,2.8-1.6,2.8-3.3
		C303.2,111.8,302.1,110.7,300.3,110.7z M299.4,115.5h-2l0.8-3.5h2c1.1,0,1.6,0.6,1.6,1.5C301.7,114.7,300.8,115.5,299.4,115.5z"/>
	<polygon class="st0" points="303.8,121 310,121 310.3,119.7 305.5,119.7 306.2,116.5 310.5,116.5 310.8,115.2 306.4,115.2 
		307.1,112 311.9,112 312.2,110.7 306,110.7 	"/>
	<path class="st0" d="M321.9,110.4c-2.7,0-5.5,2.2-5.5,6.3c0,2.7,1.8,4.5,4.5,4.5c2.7,0,5.5-2.1,5.5-6.3
		C326.3,112.2,324.6,110.4,321.9,110.4z M320.9,119.9c-1.8,0-3.1-1.2-3.1-3.4c0-2.5,1.4-4.8,4-4.8c1.8,0,3.1,1.2,3.1,3.4
		C324.9,117.6,323.5,119.9,320.9,119.9z"/>
	<path class="st0" d="M332.6,110.7h-3.3l-2.2,10.4h1.4l0.9-4.3h2.2c2.1,0,3.8-1.3,3.8-3.4C335.5,111.8,334.4,110.7,332.6,110.7z
		 M331.6,115.5h-2l0.8-3.5h1.9c1.1,0,1.7,0.6,1.7,1.5C334,114.7,333,115.5,331.6,115.5z"/>
	<polygon class="st0" points="344.5,110.7 336.5,110.7 336.2,112 339.6,112 337.6,121 339.1,121 341,112 344.2,112 	"/>
	<polygon class="st0" points="343.8,121 345.2,121 347.4,110.7 346,110.7 	"/>
	<path class="st0" d="M353.7,110.4c-2.7,0-5.5,2.2-5.5,6.3c0,2.7,1.8,4.5,4.5,4.5c0.9,0,1.7-0.2,2.5-0.6l1.1,1.5l1.1-0.7l-1.1-1.5
		c1.2-1,2-2.7,2-4.9C358.2,112.2,356.4,110.4,353.7,110.4z M355.4,118.8l-1.6-2.2l-1.1,0.7l1.6,2.2c-0.5,0.2-1,0.4-1.6,0.4
		c-1.8,0-3.1-1.2-3.1-3.4c0-2.5,1.4-4.8,4-4.8c1.8,0,3.1,1.2,3.1,3.4C356.7,116.5,356.2,117.9,355.4,118.8z"/>
	<path class="st0" d="M365.5,117.8c-0.3,1.4-1.2,2.2-2.4,2.2c-1.4,0-2.1-0.7-2.1-1.9c0-0.2,0-0.5,0.1-0.8l1.3-6.6h-1.4l-1.4,6.4
		c-0.1,0.4-0.1,0.7-0.1,1.1c0,2,1.3,3.1,3.4,3.1c2,0,3.5-1.2,3.9-3.4l1.5-7.2H367L365.5,117.8z"/>
	<polygon class="st0" points="368.7,121 375,121 375.3,119.7 370.5,119.7 371.1,116.5 375.5,116.5 375.8,115.2 371.4,115.2 
		372.1,112 376.9,112 377.2,110.7 370.9,110.7 	"/>
	<path class="st0" d="M3.8,81.8h16.9c5.8,0,8.5-1.7,10.7-7.9l0.1,0l0.1-0.6c0.8-2.5,1.6-5.6,2.4-9.5c0.1-0.3,0.1-0.7,0.1-1L38.4,44
		h14.3c21.2,0,29.9-9,29.9-23.4c0-10.2-7.1-17.9-18.6-17.9h-21c-3.2,0-5.9,2.4-6.6,5.7L23.7,71.7c0,0,0,0,0,0.1
		c-0.4,1.3-1.6,2.1-3,2c0,0,0,0,0,0H3.8c-1.7,0-3,1.4-3,3v2C0.8,80.5,2.1,81.8,3.8,81.8z M44.6,13.2c0.2-1,1.1-1.8,2.1-1.8h15.8
		c7,0,10.8,4,10.8,9.8c0,8.9-6.4,14.1-20.6,14.1H40.1L44.6,13.2z"/>
	<path class="st0" d="M78.2,82.2c2,0,3.8-1.4,4.2-3.4l12.6-59.4c0.6-2.7-1.5-5.2-4.2-5.2h0c-2,0-3.8,1.4-4.2,3.4L74,77
		C73.4,79.7,75.5,82.2,78.2,82.2z"/>
	<path class="st0" d="M190.5,25.9c3.4,0,7-3.1,7-7c0-3.1-2.3-5.6-5.7-5.6c-3.4,0-7,3-7,7C184.8,23.3,187.1,25.9,190.5,25.9z"/>
	<path class="st0" d="M174.6,77.7L174.6,77.7c-1.3,8.1,5.2,6.7,6.1,6.6c22.8-1.5,35.8-21.2,35.8-54.5c0-15.8,12.6-20.2,22.6-20.4
		c2.6-0.1,4.6-2.1,4.6-4.7c0-2.6-2.2-4.8-4.8-4.7c-11.8,0.4-31.8,5.7-31.8,29.8c0,18.7-4.2,40.8-23.1,44.6l6.9-32.2
		c0.6-2.7-1.5-5.2-4.2-5.2c-2,0-3.8,1.4-4.2,3.4L174.6,77C174.6,77.2,174.6,77.5,174.6,77.7z"/>
	<path class="st0" d="M234.3,35.5c-12.2,3.1-21.6,16-17.4,32.6c3.3,13.1,14,17.7,24.9,15c7.1-1.8,12.2-6.2,14.9-11.1
		c1.2-2.2,0.1-4.9-2.2-5.7c-1.9-0.6-3.9,0.2-4.8,1.9c-1.7,3.1-4.8,6.1-9.9,7.4c-6.1,1.5-12.3-1.8-14.1-9c-0.1-0.5-0.2-0.9-0.3-1.6
		l27.4-6.8c3.1-0.8,5.1-3.8,4.7-6.9c-0.1-0.8-0.3-1.7-0.5-2.6C254.2,38.3,246.1,32.6,234.3,35.5z M247.8,50.2
		c0.2,0.7,0.3,1.5,0.3,1.9l-23.3,5.8c0.1-6.1,3.6-12.8,11-14.7C243,41.4,246.7,45.8,247.8,50.2z"/>
	<path class="st0" d="M277.5,68.2c3.3,13.1,14,17.7,24.9,15c7.1-1.8,12.2-6.2,14.9-11.1c1.2-2.2,0.1-4.9-2.2-5.7
		c-1.9-0.6-3.9,0.2-4.8,1.9c-1.7,3.1-4.8,6.1-9.9,7.4c-6.1,1.5-12.3-1.8-14.1-9c-0.1-0.5-0.2-0.9-0.3-1.6l27.4-6.8
		c3.1-0.8,5.1-3.8,4.7-6.9c-0.1-0.8-0.3-1.7-0.5-2.6c-2.6-10.4-10.7-16.1-22.6-13.2C282.7,38.6,273.4,51.6,277.5,68.2z M296.4,43.2
		c7.3-1.8,11,2.6,12.1,7c0.2,0.7,0.3,1.5,0.3,1.9l-23.3,5.8C285.5,51.7,289,45.1,296.4,43.2z"/>
	<path class="st0" d="M263,82.2c2,0,3.8-1.4,4.2-3.4l12.6-59.4c0.6-2.7-1.5-5.2-4.2-5.2h0c-2,0-3.8,1.4-4.2,3.4L258.8,77
		C258.2,79.7,260.2,82.2,263,82.2z"/>
	<path class="st0" d="M342.2,83.6c8.3,0,14.1-4,17.9-9c1.6-2.1,0.7-5-1.6-6.1c-1.7-0.8-3.8-0.2-4.9,1.3c-2.2,3.1-5.6,5.8-11,5.8
		c-7.4,0-12.3-5.1-12.3-13.1c0-11.6,6.2-17.9,13.1-19h26.6l-5.2,26c-0.3,1.2-0.4,2.4-0.4,3.5c0,6.3,4.3,10,10.9,10
		c1,0,1.9-0.1,2.6-0.2h60.9l-18.9-26.7c-2.8,2-3.4,6-1.4,8.8l7.1,10.1c-11.9,0-41,0-45.3,0c0,0,0,0,0,0c-0.3,0-0.5-0.1-0.9-0.1
		c-3.4,0-5.9-0.9-5.9-3.7c0-0.7,0.1-1.3,0.3-2.2l5-25.6h9.1l1.7-8h-9.1l3.1-14.3h-8.1l-1.5,7c-0.9,4.4-3.9,7.2-9.1,7.3H346
		c-13.6,0-24.7,11.1-24.7,27.2C321.3,74.6,329.2,83.6,342.2,83.6z"/>
	<path class="st0" d="M132.1,77c-0.6,2.7,1.5,5.2,4.2,5.2h0c2,0,3.8-1.4,4.2-3.4l4.9-22.9c1.3-6.1,5.5-12.4,12.6-12.4
		c5.5,0,8.3,2.9,8.3,7.9c0,1.4-0.2,2.5-0.4,3.5L161.3,77c-0.6,2.7,1.5,5.2,4.2,5.2c2,0,3.8-1.4,4.2-3.4l5.4-25.2
		c0.3-1.5,0.5-3,0.5-4.3c0-8.3-5.5-13.5-13.4-13.5c-1.3,0-2.6,0.1-3.8,0.3c-0.3,0.1-0.6,0.1-0.9,0.2c-13.3,1.7-18.9,11.6-22.1,26.1
		l0-0.1l-0.3,1.6c0,0,0,0,0,0h0L132.1,77z"/>
	<path class="st0" d="M107.8,83.1c5.5,0,10.3-2.9,13.4-6.7c-0.2,1.4-0.2,2.4-0.2,3.1l0,0c0,1.4,1.2,2.6,2.6,2.6h2
		c1.4,0,2.7-1,2.9-2.4c0.5-2.4,1.2-6.3,1.9-9.3l1.8-8.5c1.7-10.4-0.7-16.7-4.1-20.4c-3.2-3.4-8-5.8-14.7-5.9
		c-14-0.2-23.6,13-23.6,27.6C89.9,74.4,96,83.1,107.8,83.1z M114,43.3c7.3,0,10.5,5.2,10.5,11.7c0,11.7-6.3,20.6-14.9,20.6
		c-7.2,0-10.7-5.2-10.7-12.3C98.8,54.1,104.1,43.3,114,43.3z"/>
	<path class="st0" d="M4.2,88.1c-1.8,0.2-7.5,6.6-1.6,7.6l411.9,0l-11.5,8.1c-2.4,1.7-3,5-1.3,7.3l0.9,1.4L437,87.9
		C260.2,87.9,180.9,87.6,4.2,88.1z"/>
	<path class="st0" d="M464.5,113.2c3-2.1,3.7-6.2,1.6-9.2l-5.8-8.3h18.2c8.6,0.1,9-3.2,10.3-7.8h-42.1L464.5,113.2z"/>
	<path class="st0" d="M404.7,115.7l2.6,3.7c1.2,1.7,3.5,2.1,5.2,0.9l10.8-7.8l-4.4,16.1c-0.7,2.6,1.2,5.2,4,5.2h4.1l11.9-42.6
		L404.7,115.7z"/>
	<path class="st0" d="M431.1,133.6h2c3.2,0,6.1-2.2,7-5.3l6-21.6l8.2,11.7c0.8,1.1,2.3,1.4,3.4,0.6l4.6-3.3l-19.2-25.7L431.1,133.6z
		"/>
</g>
</svg>
